<svg width="81" height="80" viewBox="0 0 81 80" fill="none" xmlns="http://www.w3.org/2000/svg">
<g clip-path="url(#clip0_3911_229993)">
<path d="M80.8613 40C80.8613 62.0612 62.9772 79.9453 40.916 79.9453C18.8548 79.9453 0.970703 62.0612 0.970703 40C0.970703 17.9388 18.8548 0.0546875 40.916 0.0546875C62.9772 0.0546875 80.8613 17.9388 80.8613 40Z" fill="#F0F0F0" stroke="#E9E8EB" stroke-width="0.109375"/>
<path d="M27.0531 77.4724L23.5887 53.9678H78.3498C72.6861 69.1404 58.0637 79.9454 40.9166 79.9454C36.0419 79.9454 31.3717 79.071 27.0531 77.4724Z" fill="black" stroke="#E9E8EB" stroke-width="0.109375"/>
<path d="M40.9166 0.0546875C58.0637 0.0546875 72.6861 10.8598 78.3498 26.0323H23.5887L27.0531 2.52768C31.3717 0.929078 36.0419 0.0546875 40.9166 0.0546875Z" fill="#005B13" stroke="#E9E8EB" stroke-width="0.109375"/>
<path d="M26.9484 2.56699V77.4336C11.7759 71.7697 0.970703 57.1475 0.970703 40.0003C0.970703 22.8531 11.7759 8.23091 26.9484 2.56699Z" fill="#F0263C" stroke="#E9E8EB" stroke-width="0.109375"/>
</g>
<defs>
<clipPath id="clip0_3911_229993">
<rect width="80" height="80" fill="white" transform="translate(0.916016)"/>
</clipPath>
</defs>
</svg>
