<svg width="81" height="80" viewBox="0 0 81 80" fill="none" xmlns="http://www.w3.org/2000/svg">
<g clip-path="url(#clip0_3911_229998)">
<path d="M40.916 24.4024L78.3894 26.1398C79.9871 30.4575 80.8613 35.1264 80.8613 39.9998C80.8613 44.8733 79.9871 49.5422 78.3894 53.86L40.916 55.5973L3.44268 53.8599C1.84508 49.5422 0.970703 44.8733 0.970703 39.9998C0.970703 35.1264 1.84508 30.4575 3.44269 26.1397L40.916 24.4024Z" fill="#0052B4" stroke="#E9E8EB" stroke-width="0.109375"/>
<path d="M3.483 53.9678H78.3497C72.6857 69.1404 58.0636 79.9454 40.9163 79.9454C23.7691 79.9454 9.14692 69.1404 3.483 53.9678Z" fill="#FF9811" stroke="#E9E8EB" stroke-width="0.109375"/>
<path d="M78.3498 26.0323H3.483C9.14692 10.8598 23.7691 0.0546875 40.9163 0.0546875C58.0636 0.0546875 72.6857 10.8598 78.3498 26.0323Z" fill="#D80027" stroke="#E9E8EB" stroke-width="0.109375"/>
</g>
<defs>
<clipPath id="clip0_3911_229998">
<rect width="80" height="80" fill="white" transform="translate(0.916016)"/>
</clipPath>
</defs>
</svg>
