<svg width="81" height="80" viewBox="0 0 81 80" fill="none" xmlns="http://www.w3.org/2000/svg">
<g clip-path="url(#clip0_3911_230002)">
<path d="M40.916 24.4024L78.3894 26.1398C79.9871 30.4575 80.8613 35.1264 80.8613 39.9998C80.8613 44.8733 79.9871 49.5422 78.3894 53.86L40.916 55.5973L3.44268 53.8599C1.84508 49.5422 0.970703 44.8733 0.970703 39.9998C0.970703 35.1264 1.84508 30.4575 3.44269 26.1397L40.916 24.4024Z" fill="#D80027" stroke="#E9E8EB" stroke-width="0.109375"/>
<path d="M3.48105 53.9678H78.3477C72.6838 69.1404 58.0616 79.9454 40.9144 79.9454C23.7671 79.9454 9.14497 69.1404 3.48105 53.9678Z" fill="#6DA544" stroke="#E9E8EB" stroke-width="0.109375"/>
<path d="M78.3479 26.0323H3.48105C9.14497 10.8598 23.7671 0.0546875 40.9144 0.0546875C58.0616 0.0546875 72.6838 10.8598 78.3479 26.0323Z" fill="#338AF3" stroke="#E9E8EB" stroke-width="0.109375"/>
<path d="M30.4271 40C30.4271 46.2734 35.5128 51.3591 41.7862 51.3591C43.6039 51.3591 45.322 50.9319 46.8455 50.1724C44.3743 52.459 41.0705 53.8582 37.4384 53.8582C29.7847 53.8582 23.5801 47.6536 23.5801 39.9999C23.5801 32.3462 29.7845 26.1416 37.4384 26.1416C41.0704 26.1416 44.3743 27.5408 46.8456 29.8275C45.3221 29.0681 43.6039 28.641 41.7862 28.641C35.5128 28.641 30.4271 33.7267 30.4271 40Z" fill="#F0F0F0" stroke="#E9E8EB" stroke-width="0.109375"/>
<path d="M52.0012 36.4343L55.8989 34.5813L54.046 38.4789L54.02 38.5337L54.0771 38.5539L58.1433 39.9999L54.0771 41.4459L54.02 41.4662L54.046 41.5209L55.8989 45.4186L52.0012 43.5655L51.9465 43.5395L51.9262 43.5966L50.4804 47.6628L49.0347 43.5966L49.0144 43.5395L48.9597 43.5655L45.0619 45.4186L46.9149 41.5209L46.9409 41.4662L46.8839 41.4459L42.8175 39.9999L46.8839 38.5539L46.9409 38.5337L46.9149 38.4789L45.0619 34.5813L48.9597 36.4343L49.0144 36.4603L49.0347 36.4032L50.4804 32.3371L51.9262 36.4032L51.9465 36.4603L52.0012 36.4343Z" fill="#F0F0F0" stroke="#E9E8EB" stroke-width="0.109375"/>
</g>
<defs>
<clipPath id="clip0_3911_230002">
<rect width="80" height="80" fill="white" transform="translate(0.916016)"/>
</clipPath>
</defs>
</svg>
