<svg width="81" height="80" viewBox="0 0 81 80" fill="none" xmlns="http://www.w3.org/2000/svg">
<g clip-path="url(#clip0_3911_230009)">
<path d="M80.8613 40C80.8613 62.0612 62.9772 79.9453 40.916 79.9453C18.8548 79.9453 0.970703 62.0612 0.970703 40C0.970703 17.9388 18.8548 0.0546875 40.916 0.0546875C62.9772 0.0546875 80.8613 17.9388 80.8613 40Z" fill="#EE1C25" stroke="#E9E8EB" stroke-width="0.109375"/>
<path d="M22.8066 24.5207L26.2078 34.9857L26.22 35.0234H26.2598H37.2637L28.3682 41.5027L28.3361 41.526L28.3484 41.5638L31.7495 52.0289L22.8388 45.5651L22.8066 45.5418L22.7745 45.5651L13.864 52.0287L17.2805 41.5638L17.2928 41.526L17.2607 41.5026L8.34984 35.0234H19.3535H19.3932L19.4055 34.9857L22.8066 24.5207Z" fill="#FFDA44" stroke="#E9E8EB" stroke-width="0.109375"/>
<path d="M48.2739 61.7876L45.7397 58.6686L45.7146 58.6377L45.6775 58.6521L41.9282 60.1069L44.1026 56.7327L44.124 56.6995L44.0992 56.6687L41.564 53.5335L45.4488 54.5685L45.4872 54.5787L45.5088 54.5454L47.6983 51.1711L47.9083 55.1904L47.9104 55.2301L47.9489 55.2404L51.8477 56.275L48.084 57.7145L48.0467 57.7288L48.0489 57.7687L48.2739 61.7876Z" fill="#FFDA44" stroke="#E9E8EB" stroke-width="0.109375"/>
<path d="M53.6906 52.2767L54.8901 48.4382L54.902 48.4002L54.8695 48.3772L51.5844 46.0522L55.6043 45.9922L55.6441 45.9916L55.6558 45.9536L56.8406 42.1142L58.1455 45.924L58.1583 45.9614L58.1979 45.9609L62.2171 45.9159L58.9927 48.3155L58.9608 48.3392L58.9736 48.3769L60.2634 52.1863L56.9789 49.8616L56.9464 49.8386L56.9145 49.8625L53.6906 52.2767Z" fill="#FFDA44" stroke="#E9E8EB" stroke-width="0.109375"/>
<path d="M56.9884 31.3609L60.5431 29.486L58.7732 33.1009L58.7557 33.1365L58.7841 33.1642L61.6638 35.9689L57.6894 35.399L57.6501 35.3934L57.6326 35.429L55.8629 39.0282L55.173 35.0687L55.1662 35.0296L55.1269 35.024L51.138 34.4542L54.7071 32.5797L54.7423 32.5611L54.7355 32.5219L54.0456 28.5476L56.9247 31.3517L56.9532 31.3794L56.9884 31.3609Z" fill="#FFDA44" stroke="#E9E8EB" stroke-width="0.109375"/>
<path d="M48.3801 18.1175L48.0802 22.1209L48.0773 22.1607L48.1142 22.1757L51.8482 23.6903L47.9342 24.65L47.8955 24.6595L47.8927 24.6993L47.6078 28.7178L45.4938 25.2994L45.4729 25.2655L45.4342 25.275L41.5193 26.235L44.1141 23.1603L44.1398 23.1298L44.1186 23.096L41.9894 19.6923L45.7236 21.2069L45.7603 21.2218L45.7859 21.1915L48.3801 18.1175Z" fill="#FFDA44" stroke="#E9E8EB" stroke-width="0.109375"/>
</g>
<defs>
<clipPath id="clip0_3911_230009">
<rect width="80" height="80" fill="white" transform="translate(0.916016)"/>
</clipPath>
</defs>
</svg>
