<svg width="81" height="80" viewBox="0 0 81 80" fill="none" xmlns="http://www.w3.org/2000/svg">
<g clip-path="url(#clip0_10432_109686)">
<path d="M0.916016 39.9996C0.916016 44.8925 1.79617 49.5793 3.40398 53.9126L40.916 57.3909L78.428 53.9126C80.0359 49.5793 80.916 44.8925 80.916 39.9996C80.916 35.1068 80.0359 30.42 78.428 26.0867L40.916 22.6084L3.40398 26.0867C1.79617 30.42 0.916016 35.1068 0.916016 39.9996H0.916016Z" fill="#FFDA44"/>
<path d="M78.4284 26.087C72.7766 10.8552 58.1149 0 40.9163 0C23.7177 0 9.05602 10.8552 3.4043 26.087H78.4284Z" fill="#D80027"/>
<path d="M3.4043 53.9131C9.05602 69.145 23.7177 80.0001 40.9163 80.0001C58.1149 80.0001 72.7766 69.145 78.4284 53.9131H3.4043Z" fill="#D80027"/>
</g>
<defs>
<clipPath id="clip0_10432_109686">
<rect width="80" height="80" fill="white" transform="translate(0.916016)"/>
</clipPath>
</defs>
</svg>
