<svg width="81" height="80" viewBox="0 0 81 80" fill="none" xmlns="http://www.w3.org/2000/svg">
<g clip-path="url(#clip0_3911_229977)">
<path d="M80.416 40C80.416 61.8153 62.7313 79.5 40.916 79.5C19.1008 79.5 1.41602 61.8153 1.41602 40C1.41602 18.1848 19.1008 0.5 40.916 0.5C62.7313 0.5 80.416 18.1848 80.416 40Z" fill="#064896" stroke="#E9E8EB"/>
<path d="M40.9157 10.1779L42.4595 14.9289L42.4717 14.9667H42.5115H47.5066L43.4652 17.9028L43.4331 17.9262L43.4454 17.964L44.9892 22.7149L40.9478 19.7786L40.9157 19.7552L40.8835 19.7786L36.842 22.7149L38.3858 17.964L38.3981 17.9262L38.3659 17.9028L34.3246 14.9667H39.3199H39.3596L39.3719 14.9289L40.9157 10.1779Z" fill="#FFDA44" stroke="#E9E8EB" stroke-width="0.109375"/>
<path d="M19.8263 18.9124L24.2776 21.1802L24.313 21.1982L24.3411 21.1701L27.8732 17.6382L27.0916 22.5718L27.0853 22.611L27.1207 22.6291L31.5718 24.897L26.638 25.6785L26.5988 25.6847L26.5925 25.7239L25.8111 30.658L23.5431 26.2069L23.5251 26.1715L23.4859 26.1777L18.5522 26.9594L22.0844 23.4272L22.1125 23.3991L22.0944 23.3637L19.8263 18.9124Z" fill="#FFDA44" stroke="#E9E8EB" stroke-width="0.109375"/>
<path d="M11.093 40.0006L15.8439 38.4568L15.8817 38.4445V38.4048V33.4095L18.8177 37.4511L18.841 37.4832L18.8788 37.4709L23.63 35.9271L20.6934 39.9685L20.6701 40.0006L20.6934 40.0328L23.63 44.0741L18.8788 42.5305L18.841 42.5182L18.8177 42.5504L15.8817 46.5917V41.5964V41.5567L15.8439 41.5444L11.093 40.0006Z" fill="#FFDA44" stroke="#E9E8EB" stroke-width="0.109375"/>
<path d="M19.8263 61.0881L22.0942 56.6368L22.1123 56.6014L22.0842 56.5733L18.5522 53.0412L23.4861 53.823L23.5253 53.8293L23.5433 53.7939L25.8109 49.3428L26.5925 54.2766L26.5988 54.3158L26.638 54.3221L31.5717 55.1035L27.1211 57.3715L27.0857 57.3895L27.0919 57.4287L27.8733 62.3624L24.3411 58.8302L24.313 58.8021L24.2776 58.8202L19.8263 61.0881Z" fill="#FFDA44" stroke="#E9E8EB" stroke-width="0.109375"/>
<path d="M40.9157 69.8233L39.3717 65.0724L39.3594 65.0346H39.3197H34.3246L38.3661 62.0984L38.3982 62.0751L38.386 62.0373L36.842 57.2867L40.8835 60.2227L40.9157 60.246L40.9478 60.2227L44.9892 57.2867L43.4454 62.0373L43.4331 62.0751L43.4652 62.0984L47.5066 65.0346H42.5113H42.4715L42.4593 65.0724L40.9157 69.8233Z" fill="#FFDA44" stroke="#E9E8EB" stroke-width="0.109375"/>
<path d="M59.7358 56.6372L62.0039 61.0881L57.5528 58.8204L57.5174 58.8023L57.4893 58.8304L53.957 62.3626L54.7387 57.4286L54.7449 57.3893L54.7095 57.3713L50.2588 55.1035L55.1924 54.3221L55.2317 54.3158L55.2379 54.2766L56.0194 49.3428L58.2871 53.7939L58.3051 53.8293L58.3444 53.823L63.278 53.0412L59.7459 56.5737L59.7178 56.6018L59.7358 56.6372Z" fill="#FFDA44" stroke="#E9E8EB" stroke-width="0.109375"/>
<path d="M70.7384 40.0006L65.9874 41.5444L65.9496 41.5567V41.5964V46.5917L63.0135 42.5502L62.9901 42.518L62.9523 42.5303L58.2018 44.0741L61.1379 40.0328L61.1613 40.0006L61.1379 39.9685L58.2018 35.9271L62.9525 37.4709L62.9903 37.4832L63.0137 37.4511L65.9496 33.4095V38.405V38.4447L65.9874 38.457L70.7384 40.0006Z" fill="#FFDA44" stroke="#E9E8EB" stroke-width="0.109375"/>
<path d="M57.553 21.1802L62.0039 18.9122L59.736 23.3635L59.718 23.3989L59.7461 23.427L63.2782 26.9592L58.3442 26.1773L58.3049 26.1711L58.2869 26.2065L56.0194 30.6576L55.2379 25.7238L55.2317 25.6845L55.1924 25.6783L50.2588 24.8966L54.7095 22.6289L54.7449 22.6108L54.7387 22.5716L53.957 17.6381L57.4895 21.1701L57.5176 21.1982L57.553 21.1802Z" fill="#FFDA44" stroke="#E9E8EB" stroke-width="0.109375"/>
</g>
<defs>
<clipPath id="clip0_3911_229977">
<rect width="80" height="80" fill="white" transform="translate(0.916016)"/>
</clipPath>
</defs>
</svg>
