<svg width="89" height="88" viewBox="0 0 89 88" fill="none" xmlns="http://www.w3.org/2000/svg">
<g clip-path="url(#clip0_10432_86364)" filter="url(#filter0_d_10432_86364)">
<path d="M84.416 40C84.416 61.8153 66.7313 79.5 44.916 79.5C23.1008 79.5 5.41602 61.8153 5.41602 40C5.41602 18.1848 23.1008 0.5 44.916 0.5C66.7313 0.5 84.416 18.1848 84.416 40Z" fill="#F0F0F0" stroke="#E9E8EB"/>
<path d="M84.9152 40.0003C84.9152 22.8017 74.0602 8.14 58.8281 2.48828V77.5125C74.0602 71.8606 84.9152 57.1989 84.9152 40.0003Z" fill="#D80027"/>
<path d="M4.91602 40.0003C4.91602 57.1989 15.7712 71.8606 31.003 77.5124V2.48828C15.7712 8.14 4.91602 22.8017 4.91602 40.0003Z" fill="#0052B4"/>
</g>
<defs>
<filter id="filter0_d_10432_86364" x="0.916016" y="0" width="88" height="88" filterUnits="userSpaceOnUse" color-interpolation-filters="sRGB">
<feFlood flood-opacity="0" result="BackgroundImageFix"/>
<feColorMatrix in="SourceAlpha" type="matrix" values="0 0 0 0 0 0 0 0 0 0 0 0 0 0 0 0 0 0 127 0" result="hardAlpha"/>
<feOffset dy="4"/>
<feGaussianBlur stdDeviation="2"/>
<feComposite in2="hardAlpha" operator="out"/>
<feColorMatrix type="matrix" values="0 0 0 0 0 0 0 0 0 0 0 0 0 0 0 0 0 0 0.25 0"/>
<feBlend mode="normal" in2="BackgroundImageFix" result="effect1_dropShadow_10432_86364"/>
<feBlend mode="normal" in="SourceGraphic" in2="effect1_dropShadow_10432_86364" result="shape"/>
</filter>
<clipPath id="clip0_10432_86364">
<rect width="80" height="80" fill="white" transform="translate(4.91602)"/>
</clipPath>
</defs>
</svg>
