<svg width="81" height="80" viewBox="0 0 81 80" fill="none" xmlns="http://www.w3.org/2000/svg">
<g clip-path="url(#clip0_3911_230034)">
<path d="M80.416 40C80.416 61.8153 62.7313 79.5 40.916 79.5C19.1008 79.5 1.41602 61.8153 1.41602 40C1.41602 18.1848 19.1008 0.5 40.916 0.5C62.7313 0.5 80.416 18.1848 80.416 40Z" fill="#F0F0F0" stroke="#E9E8EB"/>
<path d="M22.972 29.5111H2.36637C3.74105 24.4468 6.08632 19.7828 9.19113 15.7302L22.972 29.5111Z" fill="#000066" stroke="#E9E8EB" stroke-width="0.109375"/>
<path d="M58.8625 29.5109L72.643 15.7302C75.7477 19.7828 78.0931 24.4468 79.4678 29.5109H58.8625Z" fill="#000066" stroke="#E9E8EB" stroke-width="0.109375"/>
<path d="M22.9715 50.4893L9.19113 64.2698C6.08647 60.2174 3.74121 55.5534 2.36637 50.4893H22.9715Z" fill="#000066" stroke="#E9E8EB" stroke-width="0.109375"/>
<path d="M51.4062 22.0548V1.44938C56.4705 2.82421 61.1344 5.16948 65.1869 8.27429L51.4062 22.0548Z" fill="#000066" stroke="#E9E8EB" stroke-width="0.109375"/>
<path d="M30.4279 57.9455V78.5508C25.3637 77.1759 20.6998 74.8307 16.6472 71.7259L30.4279 57.9455Z" fill="#000066" stroke="#E9E8EB" stroke-width="0.109375"/>
<path d="M30.4277 22.0547L16.6472 8.27413C20.6996 5.16948 25.3636 2.82421 30.4277 1.44938V22.0547Z" fill="#000066" stroke="#E9E8EB" stroke-width="0.109375"/>
<path d="M51.4062 57.9455L65.1868 71.726C61.1344 74.8307 56.4704 77.1759 51.4062 78.5508V57.9455Z" fill="#000066" stroke="#E9E8EB" stroke-width="0.109375"/>
<path d="M79.4678 50.4893C78.0931 55.5534 75.7477 60.2175 72.643 64.2699L58.8625 50.4893H79.4678Z" fill="#000066" stroke="#E9E8EB" stroke-width="0.109375"/>
<path d="M46.0788 34.7827V34.8373H46.1335H46.1337H80.5294C80.7474 36.5276 80.8613 38.2506 80.8613 40C80.8613 41.7498 80.7474 43.4724 80.5294 45.1628H46.1334H46.0787V45.2175V45.2177V79.6133C44.3884 79.8315 42.6655 79.9453 40.916 79.9453C39.1663 79.9453 37.4436 79.8314 35.7532 79.6133V45.2173V45.1627H35.6985H35.6984H1.30267C1.08464 43.4724 0.970703 41.7498 0.970703 40C0.970703 38.2506 1.08464 36.5276 1.30267 34.8372H35.6987H35.7534V34.7825V34.7823V0.386652C37.4436 0.168629 39.1663 0.0546875 40.916 0.0546875C42.6655 0.0546875 44.3884 0.168629 46.0788 0.386652V34.7827Z" fill="#D80027" stroke="#E9E8EB" stroke-width="0.109375"/>
<path d="M71.478 65.7193C70.7533 66.5799 69.9948 67.4108 69.2009 68.2067L51.4834 50.4893H56.248L71.478 65.7193Z" fill="#D80027" stroke="#E9E8EB" stroke-width="0.109375"/>
<path d="M12.7082 68.2838L30.4257 50.5663V55.3305L15.1956 70.5609C14.335 69.8361 13.5041 69.0777 12.7082 68.2838Z" fill="#D80027" stroke="#E9E8EB" stroke-width="0.109375"/>
<path d="M12.6325 11.7932L30.35 29.5108H25.5856L10.3554 14.2806C11.0801 13.42 11.8386 12.5891 12.6325 11.7932Z" fill="#D80027" stroke="#E9E8EB" stroke-width="0.109375"/>
<path d="M66.6363 9.4384C67.4969 10.163 68.3278 10.9215 69.1237 11.7154L51.4062 29.433V24.6686L66.6363 9.4384Z" fill="#D80027" stroke="#E9E8EB" stroke-width="0.109375"/>
</g>
<defs>
<clipPath id="clip0_3911_230034">
<rect width="80" height="80" fill="white" transform="translate(0.916016)"/>
</clipPath>
</defs>
</svg>
