<svg width="81" height="80" viewBox="0 0 81 80" fill="none" xmlns="http://www.w3.org/2000/svg">
<g clip-path="url(#clip0_3911_229950)">
<path d="M80.416 40C80.416 61.8153 62.7313 79.5 40.916 79.5C19.1008 79.5 1.41602 61.8153 1.41602 40C1.41602 18.1848 19.1008 0.5 40.916 0.5C62.7313 0.5 80.416 18.1848 80.416 40Z" fill="#FBFBFC" stroke="#E9E8EB"/>
<path d="M46.0788 34.7827V34.8373H46.1335H46.1337H80.5294C80.7474 36.5276 80.8613 38.2506 80.8613 40C80.8613 41.7498 80.7474 43.4724 80.5294 45.1628H46.1334H46.0787V45.2175V45.2177V79.6133C44.3884 79.8315 42.6655 79.9453 40.916 79.9453C39.1666 79.9453 37.4436 79.8314 35.7532 79.6133V45.2173V45.1627H35.6985H35.6984H1.30267C1.08464 43.4724 0.970703 41.7498 0.970703 40C0.970703 38.2506 1.08464 36.5276 1.30267 34.8372H35.6987H35.7534V34.7825V34.7823V0.386652C37.4436 0.168629 39.1666 0.0546875 40.916 0.0546875C42.6655 0.0546875 44.3884 0.168629 46.0788 0.386652V34.7827Z" fill="#F7113A" stroke="#E9E8EB" stroke-width="0.109375"/>
<path d="M22.7656 20.9522V21.0069H22.8203H26.5751V24.707H22.8203H22.7656V24.7617V28.5165H19.0655V24.7617V24.707H19.0108H15.2559V21.0069H19.0108H19.0655V20.9522V17.1973H22.7656V20.9522Z" fill="#F7113A" stroke="#E9E8EB" stroke-width="0.109375"/>
<path d="M61.3377 20.9522V21.0069H61.3924H65.1473V24.707H61.3924H61.3377V24.7617V28.5165H57.6376V24.7617V24.707H57.5829H53.8281V21.0069H57.5829H57.6376V20.9522V17.1973H61.3377V20.9522Z" fill="#F7113A" stroke="#E9E8EB" stroke-width="0.109375"/>
<path d="M22.7656 55.2382V55.2929H22.8203H26.5751V58.993H22.8203H22.7656V59.0477V62.8026H19.0655V59.0477V58.993H19.0108H15.2559V55.2929H19.0108H19.0655V55.2382V51.4834H22.7656V55.2382Z" fill="#F7113A" stroke="#E9E8EB" stroke-width="0.109375"/>
<path d="M61.3377 55.2382V55.2929H61.3924H65.1473V58.993H61.3924H61.3377V59.0477V62.8026H57.6376V59.0477V58.993H57.5829H53.8281V55.2929H57.5829H57.6376V55.2382V51.4834H61.3377V55.2382Z" fill="#F7113A" stroke="#E9E8EB" stroke-width="0.109375"/>
</g>
<defs>
<clipPath id="clip0_3911_229950">
<rect width="80" height="80" fill="white" transform="translate(0.916016)"/>
</clipPath>
</defs>
</svg>
