<svg width="81" height="80" viewBox="0 0 81 80" fill="none" xmlns="http://www.w3.org/2000/svg">
<g clip-path="url(#clip0_3911_229988)">
<path d="M80.8613 39.9997C80.8613 44.8737 79.9867 49.543 78.3887 53.8613L40.916 57.336L3.44331 53.8613C1.8453 49.543 0.970703 44.8737 0.970703 39.9997C0.970703 35.1256 1.8453 30.4563 3.44331 26.138L40.916 22.6633L78.3887 26.138C79.9867 30.4563 80.8613 35.1256 80.8613 39.9997Z" fill="#F0F0F0" stroke="#E9E8EB" stroke-width="0.109375"/>
<path d="M3.483 53.9678H78.3497C72.6859 69.1404 58.0636 79.9454 40.9165 79.9454C23.7691 79.9454 9.14708 69.1404 3.483 53.9678Z" fill="#D80027" stroke="#E9E8EB" stroke-width="0.109375"/>
<path d="M3.483 26.0323C9.14708 10.8598 23.7691 0.0546875 40.9165 0.0546875C58.0636 0.0546875 72.6859 10.8598 78.3498 26.0323H3.483Z" fill="#005B13" stroke="#E9E8EB" stroke-width="0.109375"/>
<mask id="path-4-inside-1_3911_229988" fill="white">
<path d="M12.6317 11.7158C-2.98922 27.3368 -2.98922 52.6635 12.6317 68.2846C16.7091 64.2072 20.6887 60.2275 27.003 53.9133V26.0872L12.6317 11.7158Z"/>
</mask>
<path d="M12.6317 11.7158C-2.98922 27.3368 -2.98922 52.6635 12.6317 68.2846C16.7091 64.2072 20.6887 60.2275 27.003 53.9133V26.0872L12.6317 11.7158Z" fill="black"/>
<path d="M12.6317 11.7158L12.7091 11.6385L12.6317 11.5611L12.5544 11.6385L12.6317 11.7158ZM12.6317 68.2846L12.5544 68.3619L12.6317 68.4393L12.7091 68.3619L12.6317 68.2846ZM27.003 53.9133L27.0803 53.9907L27.1123 53.9586V53.9133H27.003ZM27.003 26.0872H27.1123V26.0419L27.0803 26.0099L27.003 26.0872ZM12.5544 11.6385C-3.10927 27.3021 -3.10927 52.6981 12.5544 68.3619L12.7091 68.2072C-2.86917 52.6289 -2.86917 27.3714 12.7091 11.7932L12.5544 11.6385ZM12.7091 68.3619C12.7374 68.3336 12.7763 68.2947 12.8046 68.2664C12.8126 68.2584 12.8205 68.2504 12.8285 68.2425C12.8364 68.2345 12.8444 68.2266 12.8524 68.2186C12.8603 68.2106 12.8683 68.2027 12.8762 68.1947C12.8842 68.1868 12.8922 68.1788 12.9001 68.1708C12.9213 68.1496 12.9267 68.1443 12.9479 68.1231C12.9558 68.1151 12.9638 68.1072 12.9717 68.0992C12.9797 68.0913 12.9877 68.0833 12.9956 68.0754C13.0169 68.0541 13.0221 68.0489 13.0434 68.0276C13.0513 68.0197 13.0593 68.0117 13.0672 68.0037C13.0752 67.9958 13.0831 67.9878 13.0911 67.9799C13.0991 67.9719 13.107 67.964 13.115 67.956C13.1229 67.948 13.1309 67.9401 13.1388 67.9321C13.1468 67.9242 13.1547 67.9162 13.1627 67.9083C13.1707 67.9003 13.1786 67.8924 13.1866 67.8844C13.1945 67.8764 13.2025 67.8685 13.2104 67.8605C13.2184 67.8526 13.2264 67.8446 13.2343 67.8367C13.2423 67.8287 13.2502 67.8208 13.2582 67.8128C13.2661 67.8048 13.2741 67.7969 13.282 67.7889C13.29 67.781 13.298 67.773 13.3059 67.7651C13.3139 67.7571 13.3218 67.7491 13.3298 67.7412C13.3377 67.7332 13.3457 67.7253 13.3537 67.7173C13.3616 67.7094 13.3696 67.7014 13.3775 67.6935C13.3855 67.6855 13.3934 67.6775 13.4014 67.6696C13.4093 67.6616 13.4173 67.6537 13.4253 67.6457C13.4332 67.6377 13.4412 67.6298 13.4491 67.6218C13.4571 67.6139 13.4651 67.6059 13.473 67.598C13.481 67.59 13.4889 67.582 13.4969 67.5741C13.5048 67.5661 13.5128 67.5582 13.5208 67.5502C13.5287 67.5422 13.5367 67.5343 13.5446 67.5263C13.5526 67.5184 13.5606 67.5104 13.5685 67.5024C13.5968 67.4742 13.6358 67.4352 13.6641 67.4069C13.672 67.3989 13.68 67.391 13.6879 67.383C13.6959 67.3751 13.7039 67.3671 13.7118 67.3591C13.7198 67.3512 13.7278 67.3432 13.7357 67.3352C13.7437 67.3273 13.7517 67.3193 13.7596 67.3113C13.7676 67.3034 13.7756 67.2954 13.7835 67.2874C13.7915 67.2795 13.7995 67.2715 13.8074 67.2635C13.8154 67.2556 13.8234 67.2476 13.8313 67.2396C13.8393 67.2317 13.8473 67.2237 13.8552 67.2157C13.8632 67.2078 13.8712 67.1998 13.8792 67.1918C13.8871 67.1838 13.8951 67.1759 13.9031 67.1679C13.9243 67.1467 13.9296 67.1413 13.9509 67.1201C13.9589 67.1121 13.9668 67.1041 13.9748 67.0961C13.9828 67.0882 13.9908 67.0802 13.9988 67.0722C14.0067 67.0642 14.0147 67.0563 14.0227 67.0483C14.0307 67.0403 14.0386 67.0323 14.0466 67.0244C14.0546 67.0164 14.0626 67.0084 14.0706 67.0004C14.0785 66.9924 14.0865 66.9845 14.0945 66.9765C14.1025 66.9685 14.1105 66.9605 14.1184 66.9525C14.1264 66.9445 14.1344 66.9366 14.1424 66.9286C14.1637 66.9073 14.169 66.902 14.1903 66.8807C14.1983 66.8727 14.2063 66.8647 14.2143 66.8567C14.2223 66.8487 14.2302 66.8407 14.2382 66.8327C14.2462 66.8247 14.2542 66.8168 14.2622 66.8088C14.2702 66.8008 14.2782 66.7928 14.2862 66.7848C14.2942 66.7768 14.3022 66.7688 14.3102 66.7608C14.3182 66.7528 14.3262 66.7448 14.3342 66.7368C14.3422 66.7288 14.3502 66.7208 14.3581 66.7128C14.3661 66.7048 14.3741 66.6968 14.3821 66.6888C14.3901 66.6808 14.3981 66.6728 14.4061 66.6648C14.4142 66.6568 14.4222 66.6488 14.4302 66.6408C14.4515 66.6195 14.4569 66.6141 14.4782 66.5928C14.4862 66.5848 14.4942 66.5768 14.5022 66.5688C14.5102 66.5607 14.5182 66.5527 14.5263 66.5447C14.5343 66.5367 14.5423 66.5287 14.5503 66.5207C14.5583 66.5127 14.5663 66.5047 14.5743 66.4966C14.5957 66.4753 14.6011 66.4699 14.6224 66.4485C14.6305 66.4405 14.6385 66.4325 14.6465 66.4245C14.6545 66.4164 14.6625 66.4084 14.6706 66.4004C14.6813 66.3897 14.708 66.3629 14.7187 66.3522C14.7401 66.3308 14.7455 66.3255 14.7669 66.3041C14.7812 66.2898 14.8008 66.2701 14.8151 66.2558C14.8232 66.2478 14.8312 66.2398 14.8393 66.2317C14.8473 66.2237 14.8553 66.2156 14.8634 66.2076C14.8714 66.1996 14.8795 66.1915 14.8875 66.1835C14.8956 66.1754 14.9036 66.1674 14.9117 66.1593C14.9197 66.1513 14.9278 66.1432 14.9358 66.1352C14.9439 66.1271 14.9519 66.1191 14.96 66.111C14.9814 66.0895 14.9868 66.0842 15.0083 66.0627C15.0164 66.0546 15.0244 66.0466 15.0325 66.0385C15.0405 66.0304 15.0486 66.0224 15.0567 66.0143C15.0647 66.0062 15.0728 65.9982 15.0809 65.9901C15.0889 65.982 15.097 65.974 15.1051 65.9659C15.1131 65.9578 15.1212 65.9498 15.1293 65.9417C15.1374 65.9336 15.1454 65.9255 15.1535 65.9175C15.1616 65.9094 15.1697 65.9013 15.1777 65.8932C15.1858 65.8851 15.1939 65.8771 15.202 65.869C15.2101 65.8609 15.2182 65.8528 15.2262 65.8447C15.2343 65.8366 15.2424 65.8286 15.2505 65.8205C15.2586 65.8124 15.2667 65.8043 15.2748 65.7962C15.2829 65.7881 15.291 65.78 15.299 65.7719C15.3071 65.7638 15.3152 65.7557 15.3233 65.7476C15.3314 65.7395 15.3395 65.7314 15.3476 65.7233C15.3557 65.7152 15.3638 65.7071 15.3719 65.699C15.38 65.6909 15.3881 65.6828 15.3963 65.6747C15.4071 65.6639 15.4341 65.6369 15.4449 65.626C15.453 65.6179 15.4612 65.6098 15.4693 65.6017C15.4774 65.5936 15.4855 65.5855 15.4936 65.5773C15.5017 65.5692 15.5099 65.5611 15.518 65.553C15.5261 65.5449 15.5342 65.5367 15.5424 65.5286C15.5505 65.5205 15.5586 65.5123 15.5668 65.5042C15.5749 65.4961 15.583 65.4879 15.5912 65.4798C15.5993 65.4717 15.6074 65.4635 15.6156 65.4554C15.6237 65.4473 15.6319 65.4391 15.64 65.431C15.6481 65.4228 15.6563 65.4147 15.6644 65.4065C15.6726 65.3984 15.6807 65.3903 15.6889 65.3821C15.697 65.374 15.7052 65.3658 15.7133 65.3576C15.7215 65.3495 15.7296 65.3413 15.7378 65.3332C15.7596 65.3114 15.765 65.306 15.7868 65.2842C15.7949 65.276 15.8031 65.2679 15.8113 65.2597C15.8194 65.2515 15.8276 65.2434 15.8358 65.2352C15.8439 65.227 15.8521 65.2188 15.8603 65.2107C15.8685 65.2025 15.8767 65.1943 15.8848 65.1861C15.893 65.178 15.9012 65.1698 15.9094 65.1616C15.9176 65.1534 15.9258 65.1452 15.9339 65.137C15.9421 65.1288 15.9503 65.1206 15.9585 65.1125C15.9667 65.1043 15.9749 65.0961 15.9831 65.0879C15.9913 65.0797 15.9995 65.0715 16.0077 65.0633C16.0159 65.0551 16.0241 65.0469 16.0323 65.0387C16.0405 65.0305 16.0487 65.0222 16.0569 65.014C16.0651 65.0058 16.0734 64.9976 16.0816 64.9894C16.0921 64.9788 16.1203 64.9507 16.1309 64.9401C16.1391 64.9319 16.1473 64.9236 16.1556 64.9154C16.1638 64.9072 16.172 64.8989 16.1803 64.8907C16.1885 64.8825 16.1967 64.8743 16.205 64.866C16.2132 64.8578 16.2214 64.8495 16.2297 64.8413C16.2379 64.8331 16.2462 64.8248 16.2544 64.8166C16.2626 64.8083 16.2709 64.8001 16.2791 64.7918C16.2874 64.7836 16.2956 64.7753 16.3039 64.7671C16.3122 64.7588 16.3204 64.7506 16.3287 64.7423C16.3369 64.734 16.3452 64.7258 16.3535 64.7175C16.3617 64.7092 16.37 64.701 16.3783 64.6927C16.3865 64.6844 16.3948 64.6762 16.4031 64.6679C16.4113 64.6596 16.4196 64.6513 16.4279 64.6431C16.4362 64.6348 16.4445 64.6265 16.4527 64.6182C16.461 64.6099 16.4693 64.6017 16.4776 64.5934C16.4859 64.5851 16.4942 64.5768 16.5025 64.5685C16.5108 64.5602 16.5191 64.5519 16.5274 64.5436C16.5357 64.5353 16.544 64.527 16.5523 64.5187C16.5606 64.5104 16.5689 64.5021 16.5772 64.4938C16.5855 64.4855 16.5938 64.4772 16.6021 64.4689C16.6104 64.4605 16.6187 64.4522 16.6271 64.4439C16.6354 64.4356 16.6437 64.4273 16.652 64.4189C16.6603 64.4106 16.6687 64.4023 16.677 64.394C16.6918 64.3792 16.7122 64.3588 16.727 64.344C16.7353 64.3356 16.7437 64.3273 16.752 64.3189C16.7604 64.3106 16.7687 64.3022 16.7771 64.2939C16.7854 64.2855 16.7938 64.2772 16.8021 64.2688C16.8105 64.2605 16.8188 64.2521 16.8272 64.2438C16.8356 64.2354 16.8439 64.227 16.8523 64.2187C16.8607 64.2103 16.869 64.2019 16.8774 64.1936C16.8858 64.1852 16.8941 64.1768 16.9025 64.1684C16.9109 64.1601 16.9193 64.1517 16.9277 64.1433C16.936 64.1349 16.9444 64.1265 16.9528 64.1181C16.9612 64.1098 16.9696 64.1014 16.978 64.093C17.0062 64.0648 17.0505 64.0204 17.0789 63.9921C17.0873 63.9837 17.0957 63.9753 17.1041 63.9669C17.1125 63.9584 17.121 63.95 17.1294 63.9416C17.1378 63.9332 17.1462 63.9247 17.1547 63.9163C17.1631 63.9079 17.1716 63.8994 17.18 63.891C17.1884 63.8825 17.1969 63.8741 17.2053 63.8657C17.2138 63.8572 17.2222 63.8488 17.2307 63.8403C17.2391 63.8318 17.2476 63.8234 17.256 63.8149C17.2645 63.8065 17.273 63.798 17.2814 63.7896C17.304 63.767 17.3096 63.7613 17.3322 63.7387C17.3407 63.7303 17.3492 63.7218 17.3577 63.7133C17.3662 63.7048 17.3746 63.6963 17.3831 63.6878C17.3945 63.6765 17.4228 63.6482 17.4341 63.6369C17.4426 63.6284 17.4511 63.6199 17.4596 63.6114C17.4681 63.6029 17.4766 63.5943 17.4851 63.5858C17.4937 63.5773 17.5022 63.5688 17.5107 63.5603C17.5192 63.5518 17.5277 63.5432 17.5363 63.5347C17.5525 63.5185 17.5712 63.4998 17.5875 63.4835C17.596 63.475 17.6045 63.4664 17.6131 63.4579C17.6216 63.4493 17.6302 63.4408 17.6387 63.4322C17.6473 63.4237 17.6558 63.4151 17.6644 63.4066C17.673 63.398 17.6815 63.3894 17.6901 63.3809C17.6987 63.3723 17.7072 63.3637 17.7158 63.3552C17.7244 63.3466 17.7329 63.338 17.7415 63.3294C17.7501 63.3209 17.7587 63.3123 17.7673 63.3037C17.7759 63.2951 17.7844 63.2865 17.793 63.2779C17.8016 63.2693 17.8102 63.2607 17.8188 63.2521C17.8274 63.2435 17.836 63.2349 17.8446 63.2263C17.8676 63.2034 17.8733 63.1976 17.8963 63.1747C17.9193 63.1517 17.9251 63.1459 17.9481 63.1229C17.9567 63.1143 17.9654 63.1056 17.974 63.097C17.9826 63.0883 17.9913 63.0797 17.9999 63.071C18.023 63.048 18.0288 63.0422 18.0519 63.0191C18.0605 63.0105 18.0692 63.0018 18.0779 62.9931C18.0865 62.9844 18.0952 62.9758 18.1039 62.9671C18.1126 62.9584 18.1212 62.9497 18.1299 62.9411C18.1386 62.9324 18.1473 62.9237 18.156 62.915C18.1647 62.9063 18.1734 62.8976 18.1821 62.8889C18.1908 62.8802 18.1995 62.8715 18.2082 62.8628C18.2169 62.8541 18.2256 62.8454 18.2343 62.8367C18.243 62.828 18.2517 62.8192 18.2604 62.8105C18.2692 62.8018 18.2779 62.7931 18.2866 62.7844C18.2953 62.7756 18.3041 62.7669 18.3128 62.7582C18.3216 62.7494 18.3303 62.7407 18.339 62.7319C18.3478 62.7232 18.3565 62.7144 18.3653 62.7057C18.374 62.6969 18.3828 62.6882 18.3915 62.6794C18.4003 62.6707 18.4091 62.6619 18.4178 62.6531C18.4295 62.6415 18.4587 62.6122 18.4705 62.6005C18.4793 62.5917 18.488 62.5829 18.4968 62.5741C18.5056 62.5654 18.5144 62.5566 18.5232 62.5478C18.532 62.539 18.5408 62.5302 18.5496 62.5214C18.5584 62.5126 18.5672 62.5037 18.576 62.4949C18.5996 62.4714 18.6054 62.4656 18.629 62.442C18.6378 62.4332 18.6466 62.4244 18.6555 62.4155C18.6643 62.4067 18.6731 62.3978 18.682 62.389C18.7056 62.3654 18.7115 62.3595 18.7351 62.3359C18.7587 62.3123 18.7646 62.3063 18.7883 62.2827C18.7972 62.2738 18.8061 62.2649 18.8149 62.256C18.8238 62.2471 18.8327 62.2383 18.8416 62.2294C18.8505 62.2205 18.8594 62.2116 18.8683 62.2027C18.8772 62.1938 18.8861 62.1849 18.895 62.1759C18.9039 62.167 18.9128 62.1581 18.9218 62.1492C18.9307 62.1403 18.9396 62.1314 18.9485 62.1224C18.9723 62.0986 18.9783 62.0927 19.0021 62.0688C19.0111 62.0599 19.02 62.0509 19.029 62.042C19.0379 62.033 19.0469 62.0241 19.0559 62.0151C19.0648 62.0062 19.0738 61.9972 19.0828 61.9882C19.0917 61.9793 19.1007 61.9703 19.1097 61.9613C19.1186 61.9523 19.1276 61.9433 19.1366 61.9344C19.1456 61.9254 19.1546 61.9164 19.1636 61.9074C19.1726 61.8984 19.1816 61.8894 19.1906 61.8804C19.1996 61.8714 19.2086 61.8624 19.2176 61.8534C19.2266 61.8444 19.2356 61.8353 19.2447 61.8263C19.2537 61.8173 19.2627 61.8083 19.2717 61.7992C19.2808 61.7902 19.2898 61.7812 19.2988 61.7721C19.3079 61.7631 19.3169 61.7541 19.326 61.745C19.335 61.736 19.3441 61.7269 19.3531 61.7178C19.3622 61.7088 19.3712 61.6997 19.3803 61.6907C19.3894 61.6816 19.3984 61.6725 19.4075 61.6635C19.4166 61.6544 19.4257 61.6453 19.4348 61.6362C19.4438 61.6271 19.4529 61.618 19.462 61.609C19.4711 61.5999 19.4802 61.5908 19.4893 61.5817C19.4984 61.5726 19.5075 61.5635 19.5166 61.5543C19.5257 61.5452 19.5349 61.5361 19.544 61.527C19.5531 61.5179 19.5622 61.5088 19.5713 61.4996C19.5805 61.4905 19.5896 61.4814 19.5987 61.4722C19.6079 61.4631 19.617 61.4539 19.6262 61.4448C19.6353 61.4356 19.6445 61.4265 19.6536 61.4173C19.6628 61.4082 19.6719 61.399 19.6811 61.3899C19.6903 61.3807 19.6995 61.3715 19.7086 61.3623C19.7178 61.3532 19.727 61.344 19.7362 61.3348C19.7454 61.3256 19.7545 61.3164 19.7637 61.3072C19.7729 61.298 19.7821 61.2888 19.7913 61.2796C19.8005 61.2704 19.8097 61.2612 19.819 61.252C19.8282 61.2428 19.8374 61.2336 19.8466 61.2244C19.8558 61.2151 19.8651 61.2059 19.8743 61.1967C19.8835 61.1874 19.8928 61.1782 19.902 61.169C19.9113 61.1597 19.9205 61.1505 19.9298 61.1412C19.939 61.132 19.9483 61.1227 19.9575 61.1134C19.9668 61.1042 19.9761 61.0949 19.9853 61.0856C19.9946 61.0764 20.0039 61.0671 20.0132 61.0578C20.0224 61.0485 20.0317 61.0392 20.041 61.03C20.0503 61.0207 20.0596 61.0114 20.0689 61.0021C20.0782 60.9928 20.0875 60.9835 20.0968 60.9742C20.115 60.9559 20.1345 60.9365 20.1527 60.9182C20.1621 60.9089 20.1714 60.8996 20.1808 60.8902C20.1901 60.8809 20.1994 60.8715 20.2088 60.8622C20.2181 60.8528 20.2275 60.8435 20.2369 60.8341C20.2462 60.8248 20.2556 60.8154 20.265 60.806C20.2743 60.7966 20.2837 60.7873 20.2931 60.7779C20.3025 60.7685 20.3118 60.7591 20.3212 60.7497C20.3306 60.7403 20.34 60.7309 20.3494 60.7215C20.3588 60.7121 20.3682 60.7027 20.3776 60.6933C20.3871 60.6839 20.3965 60.6745 20.4059 60.6651C20.4153 60.6556 20.4247 60.6462 20.4342 60.6368C20.4436 60.6274 20.4531 60.6179 20.4625 60.6085C20.4719 60.599 20.4814 60.5896 20.4908 60.5801C20.5003 60.5707 20.5098 60.5612 20.5192 60.5518C20.5287 60.5423 20.5381 60.5328 20.5476 60.5233C20.5571 60.5139 20.5666 60.5044 20.5761 60.4949C20.5855 60.4854 20.595 60.4759 20.6045 60.4664C20.614 60.4569 20.6235 60.4474 20.633 60.4379C20.6425 60.4284 20.652 60.4189 20.6616 60.4094C20.6711 60.3999 20.6806 60.3904 20.6901 60.3808C20.6997 60.3713 20.7092 60.3618 20.7187 60.3522C20.7283 60.3427 20.7378 60.3332 20.7474 60.3236C20.7569 60.3141 20.7665 60.3045 20.776 60.295C20.7856 60.2854 20.7951 60.2758 20.8047 60.2663C20.8143 60.2567 20.8239 60.2471 20.8334 60.2375C20.843 60.228 20.8526 60.2184 20.8622 60.2088C20.8718 60.1992 20.8814 60.1896 20.891 60.18C20.9006 60.1704 20.9102 60.1608 20.9198 60.1512C20.9294 60.1416 20.939 60.1319 20.9487 60.1223C20.9583 60.1127 20.9679 60.1031 20.9776 60.0934C20.9872 60.0838 20.9968 60.0741 21.0065 60.0645C21.0161 60.0548 21.0258 60.0452 21.0354 60.0355C21.0451 60.0259 21.0548 60.0162 21.0644 60.0065C21.0741 59.9969 21.0838 59.9872 21.0934 59.9775C21.1031 59.9678 21.1128 59.9582 21.1225 59.9485C21.1322 59.9388 21.1419 59.9291 21.1516 59.9194C21.1613 59.9097 21.171 59.9 21.1807 59.8903C21.1904 59.8805 21.2001 59.8708 21.2099 59.8611C21.2196 59.8514 21.2293 59.8416 21.2391 59.8319C21.2488 59.8222 21.2585 59.8124 21.2683 59.8027C21.278 59.7929 21.2878 59.7832 21.2976 59.7734C21.3073 59.7637 21.3171 59.7539 21.3268 59.7441C21.3366 59.7344 21.3464 59.7246 21.3562 59.7148C21.3736 59.6974 21.3975 59.6735 21.4149 59.656C21.4247 59.6462 21.4346 59.6364 21.4444 59.6266C21.4542 59.6168 21.464 59.607 21.4738 59.5971C21.4837 59.5873 21.4935 59.5775 21.5033 59.5676C21.5132 59.5578 21.523 59.548 21.5329 59.5381C21.5427 59.5282 21.5526 59.5184 21.5624 59.5085C21.5723 59.4987 21.5822 59.4888 21.5921 59.4789C21.6019 59.469 21.6118 59.4592 21.6217 59.4493C21.6316 59.4394 21.6415 59.4295 21.6514 59.4196C21.6613 59.4097 21.6712 59.3998 21.6811 59.3899C21.691 59.38 21.7009 59.3701 21.7108 59.3601C21.7208 59.3502 21.7307 59.3403 21.7406 59.3303C21.7506 59.3204 21.7605 59.3105 21.7704 59.3005C21.7804 59.2906 21.7903 59.2806 21.8003 59.2707C21.8103 59.2607 21.8202 59.2507 21.8302 59.2408C21.8402 59.2308 21.8501 59.2208 21.8601 59.2108C21.8701 59.2009 21.8801 59.1909 21.8901 59.1809C21.9001 59.1709 21.9101 59.1609 21.9201 59.1509C21.9301 59.1409 21.9401 59.1309 21.9501 59.1208C21.9602 59.1108 21.9702 59.1008 21.9802 59.0908C21.9902 59.0807 22.0003 59.0707 22.0103 59.0606C22.0204 59.0506 22.0304 59.0406 22.0405 59.0305C22.0505 59.0204 22.0606 59.0104 22.0707 59.0003C22.0807 58.9902 22.0908 58.9802 22.1009 58.9701C22.111 58.96 22.1211 58.9499 22.1312 58.9398C22.1412 58.9297 22.1513 58.9196 22.1615 58.9095C22.1716 58.8994 22.1817 58.8893 22.1918 58.8792C22.2019 58.8691 22.212 58.8589 22.2222 58.8488C22.2323 58.8387 22.2424 58.8285 22.2526 58.8184C22.2627 58.8083 22.2729 58.7981 22.283 58.788C22.2932 58.7778 22.3033 58.7676 22.3135 58.7575C22.3237 58.7473 22.3339 58.7371 22.344 58.7269C22.3542 58.7168 22.3644 58.7066 22.3746 58.6964C22.3848 58.6862 22.395 58.676 22.4052 58.6658C22.4154 58.6556 22.4256 58.6454 22.4358 58.6351C22.4461 58.6249 22.4563 58.6147 22.4665 58.6045C22.4767 58.5942 22.487 58.584 22.4972 58.5737C22.5075 58.5635 22.5177 58.5532 22.528 58.543C22.5382 58.5327 22.5485 58.5225 22.5588 58.5122C22.5691 58.5019 22.5793 58.4916 22.5896 58.4814C22.5999 58.4711 22.6102 58.4608 22.6205 58.4505C22.6308 58.4402 22.6411 58.4299 22.6514 58.4196C22.6617 58.4093 22.672 58.3989 22.6823 58.3886C22.6927 58.3783 22.703 58.368 22.7133 58.3576C22.7237 58.3473 22.734 58.337 22.7444 58.3266C22.7547 58.3163 22.7651 58.3059 22.7754 58.2955C22.7858 58.2852 22.7962 58.2748 22.8065 58.2644C22.8169 58.2541 22.8273 58.2437 22.8377 58.2333C22.8481 58.2229 22.8585 58.2125 22.8689 58.2021C22.8793 58.1917 22.8897 58.1813 22.9001 58.1709C22.9105 58.1604 22.9209 58.15 22.9314 58.1396C22.9418 58.1292 22.9522 58.1187 22.9627 58.1083C22.9731 58.0978 22.9836 58.0874 22.994 58.0769C23.0045 58.0665 23.0149 58.056 23.0254 58.0456C23.0359 58.0351 23.0464 58.0246 23.0568 58.0141C23.0673 58.0036 23.0778 57.9932 23.0883 57.9827C23.0988 57.9722 23.1093 57.9617 23.1198 57.9511C23.1303 57.9406 23.1409 57.9301 23.1514 57.9196C23.1619 57.9091 23.1724 57.8985 23.183 57.888C23.1935 57.8775 23.2041 57.8669 23.2146 57.8564C23.2252 57.8458 23.2357 57.8353 23.2463 57.8247C23.2568 57.8141 23.2674 57.8036 23.278 57.793C23.2886 57.7824 23.2992 57.7718 23.3097 57.7612C23.3203 57.7506 23.3309 57.74 23.3415 57.7294C23.3522 57.7188 23.3628 57.7082 23.3734 57.6976C23.384 57.687 23.3946 57.6763 23.4053 57.6657C23.4159 57.6551 23.4265 57.6444 23.4372 57.6338C23.4478 57.6231 23.4585 57.6125 23.4692 57.6018C23.4798 57.5912 23.4905 57.5805 23.5012 57.5698C23.5118 57.5591 23.5225 57.5484 23.5332 57.5378C23.5439 57.5271 23.5546 57.5164 23.5653 57.5057C23.576 57.495 23.5867 57.4843 23.5974 57.4735C23.6082 57.4628 23.6189 57.4521 23.6296 57.4414C23.6403 57.4306 23.6511 57.4199 23.6618 57.4091C23.6726 57.3984 23.6833 57.3876 23.6941 57.3769C23.7049 57.3661 23.7156 57.3553 23.7264 57.3446C23.7372 57.3338 23.748 57.323 23.7587 57.3122C23.7695 57.3014 23.7803 57.2906 23.7911 57.2798C23.8019 57.269 23.8128 57.2582 23.8236 57.2474C23.8344 57.2366 23.8452 57.2258 23.856 57.2149C23.8669 57.2041 23.8777 57.1933 23.8886 57.1824C23.8994 57.1716 23.9103 57.1607 23.9211 57.1498C23.932 57.139 23.9429 57.1281 23.9537 57.1172C23.9646 57.1064 23.9755 57.0955 23.9864 57.0846C23.9973 57.0737 24.0082 57.0628 24.0191 57.0519C24.03 57.041 24.0409 57.0301 24.0518 57.0191C24.0627 57.0082 24.0737 56.9973 24.0846 56.9864C24.0955 56.9754 24.1065 56.9645 24.1174 56.9535C24.1284 56.9426 24.1393 56.9316 24.1503 56.9207C24.1613 56.9097 24.1722 56.8987 24.1832 56.8878C24.1942 56.8768 24.2052 56.8658 24.2162 56.8548C24.2272 56.8438 24.2382 56.8328 24.2492 56.8218C24.2602 56.8108 24.2712 56.7998 24.2822 56.7887C24.2932 56.7777 24.3043 56.7667 24.3153 56.7557C24.3264 56.7446 24.3374 56.7336 24.3485 56.7225C24.3595 56.7115 24.3706 56.7004 24.3816 56.6893C24.3927 56.6783 24.4038 56.6672 24.4149 56.6561C24.426 56.645 24.437 56.6339 24.4481 56.6228C24.4592 56.6117 24.4703 56.6006 24.4815 56.5895C24.4926 56.5784 24.5037 56.5673 24.5148 56.5561C24.526 56.545 24.5371 56.5339 24.5482 56.5227C24.5594 56.5116 24.5705 56.5004 24.5817 56.4893C24.5928 56.4781 24.604 56.467 24.6152 56.4558C24.6264 56.4446 24.6375 56.4334 24.6487 56.4222C24.6599 56.411 24.6711 56.3998 24.6823 56.3886C24.6935 56.3774 24.7047 56.3662 24.716 56.355C24.7272 56.3438 24.7384 56.3326 24.7496 56.3213C24.7609 56.3101 24.7721 56.2988 24.7834 56.2876C24.7946 56.2763 24.8059 56.2651 24.8172 56.2538C24.8284 56.2425 24.8397 56.2313 24.851 56.22C24.8623 56.2087 24.8736 56.1974 24.8849 56.1861C24.8961 56.1748 24.9075 56.1635 24.9188 56.1522C24.9301 56.1409 24.9414 56.1296 24.9527 56.1182C24.9641 56.1069 24.9754 56.0956 24.9867 56.0842C24.9981 56.0729 25.0094 56.0615 25.0208 56.0502C25.0322 56.0388 25.0435 56.0274 25.0549 56.0161C25.0663 56.0047 25.0777 55.9933 25.0891 55.9819C25.1004 55.9705 25.1118 55.9591 25.1233 55.9477C25.1347 55.9363 25.1461 55.9249 25.1575 55.9135C25.1689 55.902 25.1804 55.8906 25.1918 55.8792C25.2032 55.8677 25.2147 55.8563 25.2261 55.8448C25.2376 55.8334 25.2491 55.8219 25.2605 55.8104C25.272 55.799 25.2835 55.7875 25.295 55.776C25.3065 55.7645 25.3179 55.753 25.3295 55.7415C25.341 55.73 25.3525 55.7185 25.364 55.707C25.3755 55.6955 25.387 55.6839 25.3986 55.6724C25.4101 55.6609 25.4216 55.6493 25.4332 55.6378C25.4447 55.6262 25.4563 55.6147 25.4679 55.6031C25.4794 55.5915 25.491 55.58 25.5026 55.5684C25.5142 55.5568 25.5258 55.5452 25.5374 55.5336C25.549 55.522 25.5606 55.5104 25.5722 55.4988C25.5838 55.4872 25.5954 55.4755 25.6071 55.4639C25.6187 55.4523 25.6304 55.4406 25.642 55.429C25.6536 55.4173 25.6653 55.4057 25.677 55.394C25.6886 55.3823 25.7003 55.3707 25.712 55.359C25.7237 55.3473 25.7354 55.3356 25.7471 55.3239C25.7588 55.3122 25.7705 55.3005 25.7822 55.2888C25.7939 55.2771 25.8056 55.2654 25.8174 55.2536C25.8291 55.2419 25.8408 55.2301 25.8526 55.2184C25.8643 55.2067 25.8761 55.1949 25.8878 55.1831C25.8996 55.1714 25.9114 55.1596 25.9232 55.1478C25.9349 55.136 25.9467 55.1242 25.9585 55.1124C25.9703 55.1007 25.9821 55.0888 25.9939 55.077C26.0058 55.0652 26.0176 55.0534 26.0294 55.0416C26.0412 55.0297 26.0531 55.0179 26.0649 55.006C26.0768 54.9942 26.0886 54.9823 26.1005 54.9705C26.1124 54.9586 26.1242 54.9467 26.1361 54.9349C26.148 54.923 26.1599 54.9111 26.1718 54.8992C26.1837 54.8873 26.1956 54.8754 26.2075 54.8635C26.2194 54.8515 26.2313 54.8396 26.2433 54.8277C26.2552 54.8158 26.2672 54.8038 26.2791 54.7919C26.2911 54.7799 26.303 54.768 26.315 54.756C26.3269 54.744 26.3389 54.7321 26.3509 54.7201C26.3629 54.7081 26.3749 54.6961 26.3869 54.6841C26.3989 54.6721 26.4109 54.6601 26.4229 54.6481C26.4349 54.636 26.4469 54.624 26.459 54.612C26.471 54.6 26.4831 54.5879 26.4951 54.5759C26.5072 54.5638 26.5192 54.5517 26.5313 54.5397C26.5434 54.5276 26.5554 54.5155 26.5675 54.5034C26.5796 54.4914 26.5917 54.4793 26.6038 54.4672C26.6159 54.4551 26.628 54.4429 26.6402 54.4308C26.6523 54.4187 26.6644 54.4066 26.6765 54.3944C26.6887 54.3823 26.7008 54.3701 26.713 54.358C26.7251 54.3458 26.7373 54.3337 26.7495 54.3215C26.7617 54.3093 26.7738 54.2971 26.786 54.2849C26.7982 54.2728 26.8104 54.2606 26.8226 54.2483C26.8348 54.2361 26.8471 54.2239 26.8593 54.2117C26.8715 54.1995 26.8837 54.1872 26.896 54.175C26.9082 54.1627 26.9205 54.1505 26.9327 54.1382C26.945 54.126 26.9573 54.1137 26.9696 54.1014C26.9818 54.0891 26.9941 54.0768 27.0064 54.0646C27.0187 54.0523 27.031 54.0399 27.0433 54.0276C27.0557 54.0153 27.068 54.003 27.0803 53.9907L26.9256 53.836C26.9133 53.8483 26.901 53.8606 26.8887 53.873C26.8763 53.8853 26.864 53.8976 26.8517 53.9099C26.8394 53.9222 26.8272 53.9345 26.8149 53.9467C26.8026 53.959 26.7903 53.9713 26.7781 53.9835C26.7658 53.9958 26.7536 54.0081 26.7413 54.0203C26.7291 54.0326 26.7168 54.0448 26.7046 54.057C26.6924 54.0692 26.6802 54.0815 26.6679 54.0937C26.6557 54.1059 26.6435 54.1181 26.6313 54.1303C26.6192 54.1425 26.607 54.1546 26.5948 54.1668C26.5826 54.179 26.5705 54.1911 26.5583 54.2033C26.5462 54.2155 26.534 54.2276 26.5219 54.2397C26.5097 54.2519 26.4976 54.264 26.4855 54.2761C26.4734 54.2883 26.4612 54.3004 26.4491 54.3125C26.437 54.3246 26.4249 54.3367 26.4129 54.3488C26.4008 54.3608 26.3887 54.3729 26.3766 54.385C26.3645 54.3971 26.3525 54.4091 26.3404 54.4212C26.3284 54.4332 26.3163 54.4453 26.3043 54.4573C26.2923 54.4693 26.2802 54.4814 26.2682 54.4934C26.2562 54.5054 26.2442 54.5174 26.2322 54.5294C26.2202 54.5414 26.2082 54.5534 26.1962 54.5654C26.1842 54.5774 26.1723 54.5893 26.1603 54.6013C26.1483 54.6133 26.1364 54.6252 26.1244 54.6372C26.1125 54.6491 26.1005 54.6611 26.0886 54.673C26.0767 54.6849 26.0647 54.6969 26.0528 54.7088C26.0409 54.7207 26.029 54.7326 26.0171 54.7445C26.0052 54.7564 25.9933 54.7683 25.9814 54.7802C25.9696 54.7921 25.9577 54.8039 25.9458 54.8158C25.934 54.8277 25.9221 54.8395 25.9102 54.8514C25.8984 54.8632 25.8866 54.875 25.8747 54.8869C25.8629 54.8987 25.8511 54.9105 25.8393 54.9223C25.8274 54.9342 25.8156 54.946 25.8038 54.9578C25.792 54.9696 25.7803 54.9814 25.7685 54.9931C25.7567 55.0049 25.7449 55.0167 25.7332 55.0285C25.7214 55.0402 25.7096 55.052 25.6979 55.0637C25.6861 55.0755 25.6744 55.0872 25.6627 55.0989C25.6509 55.1107 25.6392 55.1224 25.6275 55.1341C25.6158 55.1458 25.6041 55.1575 25.5924 55.1692C25.5807 55.1809 25.569 55.1926 25.5573 55.2043C25.5456 55.216 25.534 55.2277 25.5223 55.2393C25.5106 55.251 25.499 55.2626 25.4873 55.2743C25.4757 55.2859 25.464 55.2976 25.4524 55.3092C25.4408 55.3208 25.4291 55.3325 25.4175 55.3441C25.4059 55.3557 25.3943 55.3673 25.3827 55.3789C25.3711 55.3905 25.3595 55.4021 25.3479 55.4137C25.3363 55.4253 25.3248 55.4368 25.3132 55.4484C25.3016 55.46 25.2901 55.4715 25.2785 55.4831C25.267 55.4946 25.2554 55.5062 25.2439 55.5177C25.2324 55.5293 25.2208 55.5408 25.2093 55.5523C25.1978 55.5638 25.1863 55.5753 25.1748 55.5868C25.1633 55.5983 25.1518 55.6098 25.1403 55.6213C25.1288 55.6328 25.1173 55.6443 25.1058 55.6558C25.0944 55.6672 25.0829 55.6787 25.0715 55.6902C25.06 55.7016 25.0486 55.7131 25.0371 55.7245C25.0257 55.7359 25.0142 55.7474 25.0028 55.7588C24.9914 55.7702 24.98 55.7816 24.9686 55.793C24.9572 55.8044 24.9458 55.8158 24.9344 55.8272C24.923 55.8386 24.9116 55.85 24.9002 55.8614C24.8888 55.8728 24.8775 55.8841 24.8661 55.8955C24.8548 55.9069 24.8434 55.9182 24.8321 55.9296C24.8207 55.9409 24.8094 55.9522 24.7981 55.9636C24.7867 55.9749 24.7754 55.9862 24.7641 55.9975C24.7528 56.0088 24.7415 56.0201 24.7302 56.0314C24.7189 56.0427 24.7076 56.054 24.6963 56.0653C24.685 56.0766 24.6737 56.0879 24.6625 56.0991C24.6512 56.1104 24.64 56.1217 24.6287 56.1329C24.6174 56.1442 24.6062 56.1554 24.595 56.1666C24.5837 56.1779 24.5725 56.1891 24.5613 56.2003C24.5501 56.2115 24.5389 56.2228 24.5276 56.234C24.5164 56.2452 24.5052 56.2564 24.4941 56.2676C24.4829 56.2787 24.4717 56.2899 24.4605 56.3011C24.4493 56.3123 24.4382 56.3234 24.427 56.3346C24.4158 56.3458 24.4047 56.3569 24.3936 56.3681C24.3824 56.3792 24.3713 56.3903 24.3601 56.4015C24.349 56.4126 24.3379 56.4237 24.3268 56.4348C24.3157 56.4459 24.3046 56.4571 24.2935 56.4682C24.2824 56.4792 24.2713 56.4903 24.2602 56.5014C24.2491 56.5125 24.238 56.5236 24.227 56.5347C24.2159 56.5457 24.2048 56.5568 24.1938 56.5678C24.1827 56.5789 24.1717 56.5899 24.1606 56.601C24.1496 56.612 24.1386 56.623 24.1275 56.6341C24.1165 56.6451 24.1055 56.6561 24.0945 56.6671C24.0835 56.6781 24.0725 56.6891 24.0615 56.7001C24.0505 56.7111 24.0395 56.7221 24.0285 56.7331C24.0176 56.7441 24.0066 56.755 23.9956 56.766C23.9847 56.777 23.9737 56.7879 23.9627 56.7989C23.9518 56.8098 23.9409 56.8208 23.9299 56.8317C23.919 56.8426 23.9081 56.8535 23.8971 56.8645C23.8862 56.8754 23.8753 56.8863 23.8644 56.8972C23.8535 56.9081 23.8426 56.919 23.8317 56.9299C23.8208 56.9408 23.8099 56.9517 23.7991 56.9626C23.7882 56.9734 23.7773 56.9843 23.7665 56.9952C23.7556 57.006 23.7447 57.0169 23.7339 57.0277C23.723 57.0386 23.7122 57.0494 23.7014 57.0602C23.6905 57.0711 23.6797 57.0819 23.6689 57.0927C23.6581 57.1035 23.6473 57.1143 23.6365 57.1252C23.6257 57.136 23.6149 57.1468 23.6041 57.1575C23.5933 57.1683 23.5825 57.1791 23.5717 57.1899C23.5609 57.2007 23.5502 57.2114 23.5394 57.2222C23.5287 57.233 23.5179 57.2437 23.5072 57.2545C23.4964 57.2652 23.4857 57.2759 23.4749 57.2867C23.4642 57.2974 23.4535 57.3081 23.4428 57.3189C23.432 57.3296 23.4213 57.3403 23.4106 57.351C23.3999 57.3617 23.3892 57.3724 23.3785 57.3831C23.3678 57.3938 23.3572 57.4045 23.3465 57.4151C23.3358 57.4258 23.3251 57.4365 23.3145 57.4471C23.3038 57.4578 23.2932 57.4685 23.2825 57.4791C23.2719 57.4897 23.2612 57.5004 23.2506 57.511C23.24 57.5217 23.2293 57.5323 23.2187 57.5429C23.2081 57.5535 23.1975 57.5641 23.1869 57.5747C23.1763 57.5854 23.1657 57.596 23.1551 57.6065C23.1445 57.6171 23.1339 57.6277 23.1233 57.6383C23.1127 57.6489 23.1022 57.6595 23.0916 57.67C22.9239 57.8378 22.754 58.0076 22.5897 58.1719C22.5793 58.1823 22.569 58.1926 22.5587 58.203C22.5483 58.2133 22.538 58.2236 22.5277 58.2339C22.5173 58.2443 22.507 58.2546 22.4967 58.2649C22.4864 58.2752 22.4761 58.2855 22.4658 58.2958C22.4555 58.3061 22.4452 58.3164 22.4349 58.3267C22.4247 58.337 22.4144 58.3472 22.4041 58.3575C22.3938 58.3678 22.3836 58.378 22.3733 58.3883C22.3631 58.3986 22.3528 58.4088 22.3426 58.4191C22.3323 58.4293 22.3221 58.4395 22.3118 58.4498C22.3016 58.46 22.2914 58.4702 22.2812 58.4805C22.2709 58.4907 22.2607 58.5009 22.2505 58.5111C22.2403 58.5213 22.2301 58.5315 22.2199 58.5417C22.2097 58.5519 22.1995 58.5621 22.1894 58.5723C22.1792 58.5824 22.169 58.5926 22.1588 58.6028C22.1487 58.613 22.1385 58.6231 22.1283 58.6333C22.1182 58.6434 22.108 58.6536 22.0979 58.6637C22.0877 58.6739 22.0776 58.684 22.0675 58.6941C22.0574 58.7043 22.0472 58.7144 22.0371 58.7245C22.027 58.7346 22.0169 58.7447 22.0068 58.7548C21.9967 58.7649 21.9866 58.775 21.9765 58.7851C21.9664 58.7952 21.9563 58.8053 21.9462 58.8154C21.9361 58.8255 21.9261 58.8356 21.916 58.8456C21.9059 58.8557 21.8959 58.8658 21.8858 58.8758C21.8757 58.8859 21.8657 58.8959 21.8556 58.906C21.8456 58.916 21.8356 58.926 21.8255 58.9361C21.8155 58.9461 21.8055 58.9561 21.7955 58.9662C21.7854 58.9762 21.7754 58.9862 21.7654 58.9962C21.7554 59.0062 21.7454 59.0162 21.7354 59.0262C21.7254 59.0362 21.7154 59.0462 21.7055 59.0562C21.6955 59.0661 21.6855 59.0761 21.6755 59.0861C21.6656 59.0961 21.6556 59.106 21.6456 59.116C21.6357 59.1259 21.6257 59.1359 21.6158 59.1458C21.6058 59.1558 21.5959 59.1657 21.5859 59.1757C21.576 59.1856 21.5661 59.1955 21.5562 59.2055C21.5462 59.2154 21.5363 59.2253 21.5264 59.2352C21.5165 59.2451 21.5066 59.255 21.4967 59.2649C21.4868 59.2748 21.4769 59.2847 21.467 59.2946C21.4571 59.3045 21.4473 59.3144 21.4374 59.3242C21.4275 59.3341 21.4176 59.344 21.4078 59.3538C21.3979 59.3637 21.388 59.3736 21.3782 59.3834C21.3683 59.3933 21.3585 59.4031 21.3487 59.413C21.3388 59.4228 21.329 59.4326 21.3192 59.4425C21.3093 59.4523 21.2995 59.4621 21.2897 59.4719C21.2799 59.4817 21.2701 59.4916 21.2603 59.5014C21.2428 59.5188 21.2189 59.5427 21.2015 59.5601C21.1917 59.5699 21.1819 59.5797 21.1722 59.5894C21.1624 59.5992 21.1526 59.609 21.1429 59.6187C21.1331 59.6285 21.1234 59.6383 21.1136 59.648C21.1039 59.6577 21.0941 59.6675 21.0844 59.6772C21.0746 59.687 21.0649 59.6967 21.0552 59.7064C21.0455 59.7161 21.0357 59.7259 21.026 59.7356C21.0163 59.7453 21.0066 59.755 20.9969 59.7647C20.9872 59.7744 20.9775 59.7841 20.9678 59.7938C20.9581 59.8035 20.9484 59.8132 20.9388 59.8228C20.9291 59.8325 20.9194 59.8422 20.9097 59.8519C20.9001 59.8615 20.8904 59.8712 20.8808 59.8809C20.8711 59.8905 20.8614 59.9002 20.8518 59.9098C20.8421 59.9195 20.8325 59.9291 20.8229 59.9387C20.8132 59.9484 20.8036 59.958 20.794 59.9676C20.7844 59.9773 20.7747 59.9869 20.7651 59.9965C20.7555 60.0061 20.7459 60.0157 20.7363 60.0253C20.7267 60.0349 20.7171 60.0445 20.7075 60.0541C20.6979 60.0637 20.6883 60.0733 20.6788 60.0829C20.6692 60.0924 20.6596 60.102 20.65 60.1116C20.6405 60.1212 20.6309 60.1307 20.6213 60.1403C20.6118 60.1498 20.6022 60.1594 20.5927 60.1689C20.5831 60.1785 20.5736 60.188 20.564 60.1976C20.5545 60.2071 20.545 60.2166 20.5354 60.2262C20.5259 60.2357 20.5164 60.2452 20.5069 60.2547C20.4974 60.2642 20.4879 60.2738 20.4783 60.2833C20.4688 60.2928 20.4593 60.3023 20.4498 60.3118C20.4404 60.3213 20.4309 60.3307 20.4214 60.3402C20.4119 60.3497 20.4024 60.3592 20.3929 60.3687C20.3835 60.3781 20.374 60.3876 20.3645 60.3971C20.3551 60.4065 20.3456 60.416 20.3362 60.4255C20.3267 60.4349 20.3173 60.4444 20.3078 60.4538C20.2984 60.4632 20.2889 60.4727 20.2795 60.4821C20.2701 60.4915 20.2606 60.501 20.2512 60.5104C20.2418 60.5198 20.2324 60.5292 20.223 60.5386C20.2136 60.5481 20.2042 60.5575 20.1947 60.5669C20.1853 60.5763 20.176 60.5857 20.1666 60.5951C20.1572 60.6044 20.1478 60.6138 20.1384 60.6232C20.129 60.6326 20.1196 60.642 20.1103 60.6513C20.1009 60.6607 20.0915 60.6701 20.0822 60.6794C20.0728 60.6888 20.0635 60.6982 20.0541 60.7075C20.0448 60.7169 20.0354 60.7262 20.0261 60.7355C20.0167 60.7449 20.0074 60.7542 19.9981 60.7635C19.9887 60.7729 19.9794 60.7822 19.9701 60.7915C19.9608 60.8008 19.9515 60.8102 19.9421 60.8195C19.9328 60.8288 19.9235 60.8381 19.9142 60.8474C19.9049 60.8567 19.8956 60.866 19.8863 60.8753C19.877 60.8846 19.8678 60.8939 19.8585 60.9031C19.8492 60.9124 19.8399 60.9217 19.8306 60.931C19.8214 60.9402 19.8121 60.9495 19.8028 60.9588C19.7936 60.968 19.7843 60.9773 19.7751 60.9865C19.7658 60.9958 19.7566 61.005 19.7473 61.0143C19.7381 61.0235 19.7289 61.0328 19.7196 61.042C19.7104 61.0512 19.7012 61.0605 19.6919 61.0697C19.6827 61.0789 19.6735 61.0881 19.6643 61.0973C19.6551 61.1065 19.6459 61.1157 19.6367 61.125C19.6275 61.1342 19.6183 61.1434 19.6091 61.1526C19.5999 61.1617 19.5907 61.1709 19.5815 61.1801C19.5723 61.1893 19.5631 61.1985 19.5539 61.2077C19.5448 61.2168 19.5356 61.226 19.5264 61.2352C19.5173 61.2443 19.5081 61.2535 19.499 61.2627C19.4898 61.2718 19.4806 61.281 19.4715 61.2901C19.4623 61.2993 19.4532 61.3084 19.4441 61.3175C19.4349 61.3267 19.4258 61.3358 19.4167 61.3449C19.4075 61.3541 19.3984 61.3632 19.3893 61.3723C19.3802 61.3814 19.3711 61.3906 19.3619 61.3997C19.3528 61.4088 19.3437 61.4179 19.3346 61.427C19.3255 61.4361 19.3164 61.4452 19.3073 61.4543C19.2982 61.4634 19.2892 61.4725 19.2801 61.4815C19.271 61.4906 19.2619 61.4997 19.2528 61.5088C19.2438 61.5179 19.2347 61.5269 19.2256 61.536C19.2166 61.5451 19.2075 61.5541 19.1984 61.5632C19.1894 61.5722 19.1803 61.5813 19.1713 61.5903C19.1622 61.5994 19.1532 61.6084 19.1442 61.6175C19.1351 61.6265 19.1261 61.6355 19.1171 61.6446C19.108 61.6536 19.099 61.6626 19.09 61.6716C19.081 61.6807 19.0719 61.6897 19.0629 61.6987C19.0539 61.7077 19.0449 61.7167 19.0359 61.7257C19.0269 61.7347 19.0179 61.7437 19.0089 61.7527C18.9999 61.7617 18.9909 61.7707 18.9819 61.7797C18.9729 61.7887 18.964 61.7976 18.955 61.8066C18.946 61.8156 18.937 61.8246 18.9281 61.8335C18.9191 61.8425 18.9101 61.8515 18.9012 61.8604C18.8922 61.8694 18.8833 61.8784 18.8743 61.8873C18.8654 61.8963 18.8564 61.9052 18.8475 61.9141C18.8385 61.9231 18.8296 61.932 18.8206 61.941C18.8117 61.9499 18.8028 61.9588 18.7939 61.9678C18.7701 61.9916 18.7641 61.9975 18.7403 62.0213C18.7314 62.0302 18.7225 62.0391 18.7136 62.048C18.7047 62.0569 18.6958 62.0658 18.6869 62.0747C18.678 62.0836 18.6692 62.0925 18.6603 62.1013C18.6514 62.1102 18.6425 62.1191 18.6336 62.128C18.6247 62.1369 18.6159 62.1457 18.607 62.1546C18.5981 62.1635 18.5893 62.1723 18.5804 62.1812C18.5716 62.1901 18.5627 62.1989 18.5538 62.2078C18.545 62.2166 18.5361 62.2255 18.5273 62.2343C18.5185 62.2432 18.5096 62.252 18.5008 62.2608C18.4919 62.2697 18.4831 62.2785 18.4743 62.2873C18.4655 62.2962 18.4566 62.305 18.4478 62.3138C18.439 62.3226 18.4302 62.3314 18.4214 62.3403C18.4125 62.3491 18.4037 62.3579 18.3949 62.3667C18.3861 62.3755 18.3773 62.3843 18.3685 62.3931C18.3597 62.4019 18.3509 62.4107 18.3421 62.4195C18.3334 62.4283 18.3246 62.437 18.3158 62.4458C18.307 62.4546 18.2982 62.4634 18.2895 62.4722C18.2807 62.4809 18.2719 62.4897 18.2631 62.4985C18.2544 62.5072 18.2456 62.516 18.2369 62.5247C18.2281 62.5335 18.2193 62.5423 18.2106 62.551C18.2018 62.5598 18.1931 62.5685 18.1844 62.5773C18.1756 62.586 18.1669 62.5947 18.1581 62.6035C18.1494 62.6122 18.1407 62.6209 18.1319 62.6297C18.1232 62.6384 18.1145 62.6471 18.1058 62.6558C18.097 62.6646 18.0883 62.6733 18.0796 62.682C18.0709 62.6907 18.0622 62.6994 18.0535 62.7081C18.0448 62.7168 18.0361 62.7255 18.0274 62.7342C18.0187 62.7429 18.01 62.7516 18.0013 62.7603C17.9926 62.769 17.9839 62.7777 17.9752 62.7864C17.9666 62.7951 17.9579 62.8037 17.9492 62.8124C17.9405 62.8211 17.9318 62.8298 17.9232 62.8384C17.9145 62.8471 17.9058 62.8558 17.8972 62.8644C17.8885 62.8731 17.8799 62.8818 17.8712 62.8904C17.8625 62.8991 17.8539 62.9077 17.8452 62.9164C17.8366 62.925 17.828 62.9337 17.8193 62.9423C17.8107 62.9509 17.802 62.9596 17.7934 62.9682C17.7704 62.9912 17.7646 62.997 17.7416 63.02C17.7187 63.043 17.7129 63.0487 17.69 63.0717C17.6814 63.0803 17.6727 63.0889 17.6642 63.0975C17.6556 63.1061 17.647 63.1147 17.6384 63.1232C17.6269 63.1347 17.5983 63.1633 17.5868 63.1748C17.5783 63.1833 17.5697 63.1919 17.5611 63.2005C17.5525 63.2091 17.544 63.2176 17.5354 63.2262C17.5126 63.249 17.5069 63.2547 17.4841 63.2776C17.4755 63.2861 17.467 63.2947 17.4584 63.3032C17.4499 63.3117 17.4413 63.3203 17.4328 63.3288C17.4242 63.3374 17.4157 63.3459 17.4072 63.3544C17.3986 63.363 17.3901 63.3715 17.3816 63.38C17.3731 63.3886 17.3645 63.3971 17.356 63.4056C17.3475 63.4141 17.339 63.4226 17.3305 63.4311C17.322 63.4397 17.3134 63.4482 17.3049 63.4567C17.2964 63.4652 17.2879 63.4737 17.2794 63.4822C17.2709 63.4907 17.2624 63.4992 17.2539 63.5077C17.2454 63.5162 17.2369 63.5247 17.2285 63.5332C17.22 63.5416 17.2115 63.5501 17.203 63.5586C17.1945 63.5671 17.186 63.5756 17.1776 63.5841C17.155 63.6066 17.1493 63.6123 17.1267 63.6349C17.1154 63.6462 17.0873 63.6744 17.076 63.6856C17.0675 63.6941 17.0591 63.7025 17.0506 63.711C17.0422 63.7194 17.0338 63.7279 17.0253 63.7363C17.0169 63.7447 17.0084 63.7532 17 63.7616C16.9916 63.77 16.9831 63.7785 16.9747 63.7869C16.9663 63.7953 16.9579 63.8038 16.9494 63.8122C16.941 63.8206 16.9326 63.829 16.9242 63.8374C16.913 63.8487 16.8849 63.8767 16.8737 63.8879C16.8653 63.8963 16.8569 63.9047 16.8485 63.9131C16.8401 63.9215 16.8317 63.9299 16.8233 63.9383C16.8149 63.9467 16.8065 63.9551 16.7981 63.9635C16.7898 63.9719 16.7814 63.9802 16.773 63.9886C16.7646 63.997 16.7562 64.0054 16.7478 64.0138C16.7395 64.0221 16.7311 64.0305 16.7227 64.0389C16.7144 64.0473 16.706 64.0556 16.6976 64.064C16.6893 64.0724 16.6809 64.0807 16.6725 64.0891C16.6642 64.0974 16.6558 64.1058 16.6475 64.1142C16.6391 64.1225 16.6307 64.1309 16.6224 64.1392C16.614 64.1476 16.6057 64.1559 16.5974 64.1643C16.589 64.1726 16.5807 64.1809 16.5723 64.1893C16.564 64.1976 16.5557 64.206 16.5473 64.2143C16.539 64.2226 16.5307 64.231 16.5223 64.2393C16.514 64.2476 16.5057 64.2559 16.4973 64.2643C16.489 64.2726 16.4807 64.2809 16.4724 64.2892C16.4641 64.2975 16.4557 64.3059 16.4474 64.3142C16.4391 64.3225 16.4308 64.3308 16.4225 64.3391C16.4142 64.3474 16.4059 64.3557 16.3976 64.364C16.3893 64.3723 16.381 64.3806 16.3727 64.3889C16.3644 64.3972 16.3561 64.4055 16.3478 64.4138C16.3395 64.4221 16.3312 64.4304 16.3229 64.4387C16.3146 64.447 16.3064 64.4553 16.2981 64.4635C16.2898 64.4718 16.2815 64.4801 16.2732 64.4884C16.2649 64.4967 16.2567 64.5049 16.2484 64.5132C16.2401 64.5215 16.2319 64.5298 16.2236 64.538C16.2153 64.5463 16.207 64.5546 16.1988 64.5628C16.1905 64.5711 16.1823 64.5794 16.174 64.5876C16.1657 64.5959 16.1575 64.6041 16.1492 64.6124C16.141 64.6206 16.1327 64.6289 16.1245 64.6371C16.1162 64.6454 16.108 64.6536 16.0997 64.6619C16.0915 64.6701 16.0832 64.6784 16.075 64.6866C16.0668 64.6949 16.0585 64.7031 16.0503 64.7113C16.042 64.7196 16.0338 64.7278 16.0256 64.736C16.0173 64.7443 16.0091 64.7525 16.0009 64.7607C15.9927 64.769 15.9844 64.7772 15.9762 64.7854C15.968 64.7936 15.9598 64.8018 15.9515 64.8101C15.9433 64.8183 15.9351 64.8265 15.9269 64.8347C15.9187 64.8429 15.9105 64.8511 15.9023 64.8594C15.894 64.8676 15.8858 64.8758 15.8776 64.884C15.8694 64.8922 15.8612 64.9004 15.853 64.9086C15.8448 64.9168 15.8366 64.925 15.8284 64.9332C15.8202 64.9414 15.812 64.9496 15.8038 64.9578C15.7956 64.966 15.7875 64.9742 15.7793 64.9823C15.7711 64.9905 15.7629 64.9987 15.7547 65.0069C15.7465 65.0151 15.7383 65.0233 15.7302 65.0315C15.722 65.0396 15.7138 65.0478 15.7056 65.056C15.6974 65.0642 15.6893 65.0723 15.6811 65.0805C15.6729 65.0887 15.6648 65.0969 15.6566 65.105C15.6484 65.1132 15.6402 65.1214 15.6321 65.1295C15.5958 65.1658 15.5704 65.1912 15.5342 65.2274C15.526 65.2356 15.5179 65.2437 15.5097 65.2519C15.5016 65.26 15.4935 65.2682 15.4853 65.2763C15.4708 65.2908 15.4509 65.3107 15.4365 65.3251C15.4283 65.3333 15.4202 65.3414 15.4121 65.3495C15.404 65.3577 15.3958 65.3658 15.3877 65.3739C15.3796 65.382 15.3714 65.3902 15.3633 65.3983C15.3552 65.4064 15.3471 65.4145 15.3389 65.4227C15.3308 65.4308 15.3227 65.4389 15.3146 65.447C15.3065 65.4551 15.2984 65.4633 15.2902 65.4714C15.2821 65.4795 15.274 65.4876 15.2659 65.4957C15.2578 65.5038 15.2497 65.5119 15.2416 65.52C15.2335 65.5281 15.2254 65.5362 15.2173 65.5444C15.2092 65.5525 15.2011 65.5606 15.193 65.5687C15.1849 65.5768 15.1768 65.5849 15.1687 65.593C15.1606 65.6011 15.1525 65.6092 15.1444 65.6172C15.1363 65.6253 15.1282 65.6334 15.1201 65.6415C15.112 65.6496 15.1039 65.6577 15.0958 65.6658C15.0877 65.6739 15.0796 65.682 15.0716 65.6901C15.0635 65.6981 15.0554 65.7062 15.0473 65.7143C15.0311 65.7305 15.015 65.7466 14.9988 65.7628C14.9908 65.7709 14.9827 65.7789 14.9746 65.787C14.9665 65.7951 14.9585 65.8032 14.9504 65.8112C14.9423 65.8193 14.9343 65.8274 14.9262 65.8354C14.9181 65.8435 14.9101 65.8516 14.902 65.8596C14.8939 65.8677 14.8859 65.8758 14.8778 65.8838C14.8697 65.8919 14.8617 65.8999 14.8536 65.908C14.8456 65.9161 14.8375 65.9241 14.8294 65.9322C14.8214 65.9402 14.8133 65.9483 14.8053 65.9563C14.7972 65.9644 14.7892 65.9724 14.7811 65.9805C14.7731 65.9885 14.765 65.9966 14.757 66.0046C14.7386 66.023 14.7271 66.0345 14.7087 66.0529C14.7007 66.061 14.6926 66.069 14.6846 66.077C14.6765 66.0851 14.6685 66.0931 14.6605 66.1012C14.6524 66.1092 14.6444 66.1172 14.6363 66.1253C14.6283 66.1333 14.6203 66.1413 14.6122 66.1494C14.6042 66.1574 14.5962 66.1654 14.5881 66.1735C14.5801 66.1815 14.5721 66.1895 14.5641 66.1976C14.556 66.2056 14.548 66.2136 14.54 66.2216C14.5319 66.2297 14.5239 66.2377 14.5159 66.2457C14.5079 66.2537 14.4998 66.2618 14.4918 66.2698C14.4838 66.2778 14.4758 66.2858 14.4678 66.2939C14.4597 66.3019 14.4517 66.3099 14.4437 66.3179C14.4357 66.3259 14.4277 66.3339 14.4197 66.342C14.3983 66.3633 14.3929 66.3687 14.3716 66.39C14.3573 66.4043 14.3377 66.4239 14.3235 66.4381C14.3155 66.4461 14.3075 66.4541 14.2995 66.4621C14.2915 66.4701 14.2835 66.4781 14.2755 66.4861C14.2675 66.4941 14.2595 66.5021 14.2515 66.5101C14.2435 66.5181 14.2355 66.5261 14.2275 66.5341C14.2195 66.5421 14.2115 66.5501 14.2035 66.5581C14.1955 66.5661 14.1875 66.5741 14.1795 66.5821C14.1715 66.5901 14.1635 66.5981 14.1555 66.6061C14.1475 66.6141 14.1395 66.6221 14.1315 66.6301C14.1235 66.6381 14.1155 66.6461 14.1075 66.6541C14.0995 66.6621 14.0915 66.6701 14.0836 66.6781C14.0756 66.686 14.0676 66.694 14.0596 66.702C14.0516 66.71 14.0436 66.718 14.0356 66.726C14.0276 66.734 14.0197 66.742 14.0117 66.7499C14.0037 66.7579 13.9957 66.7659 13.9877 66.7739C13.9797 66.7819 13.9717 66.7899 13.9638 66.7979C13.9558 66.8058 13.9478 66.8138 13.9398 66.8218C13.9292 66.8324 13.9026 66.859 13.8919 66.8697C13.884 66.8777 13.876 66.8856 13.868 66.8936C13.86 66.9016 13.852 66.9096 13.8441 66.9175C13.8361 66.9255 13.8281 66.9335 13.8201 66.9415C13.8122 66.9494 13.8042 66.9574 13.7962 66.9654C13.7882 66.9734 13.7803 66.9813 13.7723 66.9893C13.7643 66.9973 13.7564 67.0053 13.7484 67.0132C13.7404 67.0212 13.7324 67.0292 13.7245 67.0371C13.7165 67.0451 13.7085 67.0531 13.7006 67.0611C13.6926 67.069 13.6846 67.077 13.6767 67.085C13.6687 67.0929 13.6607 67.1009 13.6528 67.1089C13.6448 67.1168 13.6368 67.1248 13.6288 67.1328C13.6209 67.1407 13.6129 67.1487 13.6049 67.1567C13.597 67.1646 13.589 67.1726 13.5811 67.1806C13.5731 67.1885 13.5651 67.1965 13.5572 67.2045C13.5492 67.2124 13.5412 67.2204 13.5333 67.2283C13.5253 67.2363 13.5173 67.2443 13.5094 67.2522C13.5014 67.2602 13.4935 67.2682 13.4855 67.2761C13.4775 67.2841 13.4696 67.292 13.4616 67.3C13.4536 67.308 13.4457 67.3159 13.4377 67.3239C13.4298 67.3318 13.4218 67.3398 13.4138 67.3478C13.4059 67.3557 13.3979 67.3637 13.39 67.3717C13.382 67.3796 13.374 67.3876 13.3661 67.3955C13.3581 67.4035 13.3502 67.4114 13.3422 67.4194C13.3342 67.4274 13.3263 67.4353 13.3183 67.4433C13.3104 67.4512 13.3024 67.4592 13.2945 67.4672C13.2865 67.4751 13.2785 67.4831 13.2706 67.491C13.2626 67.499 13.2547 67.5069 13.2467 67.5149C13.2388 67.5229 13.2308 67.5308 13.2228 67.5388C13.2149 67.5467 13.2069 67.5547 13.199 67.5626C13.191 67.5706 13.1831 67.5786 13.1751 67.5865C13.1671 67.5945 13.1592 67.6024 13.1512 67.6104C13.1433 67.6183 13.1353 67.6263 13.1274 67.6343C13.1194 67.6422 13.1115 67.6502 13.1035 67.6581C13.0955 67.6661 13.0876 67.674 13.0796 67.682C13.0717 67.6899 13.0637 67.6979 13.0558 67.7059C13.0478 67.7138 13.0398 67.7218 13.0319 67.7297C13.0239 67.7377 13.016 67.7456 13.008 67.7536C13.0001 67.7615 12.9921 67.7695 12.9842 67.7775C12.9762 67.7854 12.9682 67.7934 12.9603 67.8013C12.9523 67.8093 12.9444 67.8172 12.9364 67.8252C12.9285 67.8331 12.9205 67.8411 12.9125 67.8491C12.9046 67.857 12.8966 67.865 12.8887 67.8729C12.8807 67.8809 12.8728 67.8888 12.8648 67.8968C12.8569 67.9048 12.8489 67.9127 12.8409 67.9207C12.833 67.9286 12.825 67.9366 12.8171 67.9445C12.8091 67.9525 12.8012 67.9605 12.7932 67.9684C12.772 67.9896 12.7667 67.995 12.7454 68.0162C12.7375 68.0241 12.7295 68.0321 12.7216 68.04C12.7136 68.048 12.7056 68.056 12.6977 68.0639C12.6897 68.0719 12.6818 68.0798 12.6738 68.0878C12.6658 68.0958 12.6579 68.1037 12.6499 68.1117C12.6287 68.1329 12.6234 68.1382 12.6022 68.1595C12.5942 68.1674 12.5862 68.1754 12.5783 68.1833C12.5703 68.1913 12.5623 68.1993 12.5544 68.2072L12.7091 68.3619ZM27.1123 53.9133V26.0872H26.8936V53.9133H27.1123ZM27.0803 26.0099L12.7091 11.6385L12.5544 11.7932L26.9256 26.1646L27.0803 26.0099Z" fill="#E9E8EB" mask="url(#path-4-inside-1_3911_229988)"/>
</g>
<defs>
<clipPath id="clip0_3911_229988">
<rect width="80" height="80" fill="white" transform="translate(0.916016)"/>
</clipPath>
</defs>
</svg>
