<svg width="81" height="80" viewBox="0 0 81 80" fill="none" xmlns="http://www.w3.org/2000/svg">
<g clip-path="url(#clip0_3911_230017)">
<path d="M80.8613 40C80.8613 62.0612 62.9772 79.9453 40.916 79.9453C18.8548 79.9453 0.970703 62.0612 0.970703 40C0.970703 17.9388 18.8548 0.0546875 40.916 0.0546875C62.9772 0.0546875 80.8613 17.9388 80.8613 40Z" fill="#F0263C" stroke="#E9E8EB" stroke-width="0.109375"/>
<path d="M39.3362 32.8539L42.5194 37.2403L42.5427 37.2725L42.5805 37.2602L47.7356 35.5887L44.5474 39.9713L44.524 40.0035L44.5474 40.0356L47.7301 44.4219L42.5769 42.744L42.5391 42.7317L42.5157 42.7638L39.3277 47.1465L39.331 41.7271L39.331 41.6874L39.2933 41.6751L34.1399 39.9972L39.2951 38.3257L39.3329 38.3134L39.3329 38.2737L39.3362 32.8539Z" fill="#F0F0F0" stroke="#E9E8EB" stroke-width="0.109375"/>
<path d="M18.9642 40C18.9642 46.2734 24.05 51.3591 30.3233 51.3591C32.141 51.3591 33.8591 50.9318 35.3826 50.1723C32.9115 52.459 29.6077 53.8582 25.9755 53.8582C18.3218 53.8582 12.1172 47.6536 12.1172 39.9999C12.1172 32.3462 18.3216 26.1416 25.9755 26.1416C29.6075 26.1416 32.9115 27.5407 35.3827 29.8276C33.8592 29.0683 32.1411 28.641 30.3233 28.641C24.05 28.641 18.9642 33.7267 18.9642 40Z" fill="#F0F0F0" stroke="#E9E8EB" stroke-width="0.109375"/>
</g>
<defs>
<clipPath id="clip0_3911_230017">
<rect width="80" height="80" fill="white" transform="translate(0.916016)"/>
</clipPath>
</defs>
</svg>
