<svg width="81" height="80" viewBox="0 0 81 80" fill="none" xmlns="http://www.w3.org/2000/svg">
<g clip-path="url(#clip0_3911_229934)">
<path d="M80.416 40C80.416 61.8153 62.7313 79.5 40.916 79.5C19.1008 79.5 1.41602 61.8153 1.41602 40C1.41602 18.1848 19.1008 0.5 40.916 0.5C62.7313 0.5 80.416 18.1848 80.416 40Z" fill="#F0F0F0" stroke="#E9E8EB"/>
<path d="M79.4969 29.6191C80.3809 32.9127 80.8573 36.3732 80.8621 39.9446H39.2324V29.6191H79.4969Z" fill="#D80027" stroke="#E9E8EB" stroke-width="0.109375"/>
<path d="M65.797 8.75C69.4106 11.6311 72.5138 15.1249 74.9481 19.0755H39.2324V8.75H65.797Z" fill="#D80027" stroke="#E9E8EB" stroke-width="0.109375"/>
<path d="M16.1745 71.3584H65.6594C58.8552 76.7342 50.2617 79.9447 40.917 79.9447C31.5722 79.9447 22.9787 76.7342 16.1745 71.3584Z" fill="#D80027" stroke="#E9E8EB" stroke-width="0.109375"/>
<path d="M79.4675 50.4893C78.4688 54.1694 76.9586 57.6384 75.0154 60.8147H6.81853C4.87529 57.6384 3.36511 54.1694 2.36636 50.4893H79.4675Z" fill="#D80027" stroke="#E9E8EB" stroke-width="0.109375"/>
<path d="M4.74514 23.0339L6.6145 24.3921L6.75066 24.491L6.69865 24.3309L5.67522 21.181C5.97877 20.6139 6.29526 20.0548 6.625 19.5044L8.77425 17.943L8.91043 17.8441H8.74211H7.67627C9.78342 14.6892 12.3267 11.851 15.2215 9.41641L14.1615 12.6787L14.1095 12.8388L14.2457 12.7399L17.604 10.2999L20.9623 12.7399L21.0985 12.8388L21.0465 12.6787L19.7636 8.73073L23.1221 6.29081L23.2582 6.19187H23.0899H19.6331C25.7802 2.31386 33.0582 0.0651835 40.8613 0.0547242V0.089529V0.178769V0.267721V0.356386V0.444767V0.532864V0.620679V0.708214V0.795469V0.882447V0.969148V1.05557V1.14173V1.22761V1.31322V1.39856V1.48363V1.56844V1.65298V1.73726V1.82128V1.90504V1.98854V2.07178V2.15476V2.23749V2.31997V2.40219V2.48417V2.56589V2.64737V2.7286V2.80959V2.89033V2.97083V3.05109V3.13112V3.2109V3.29045V3.36977V3.44885V3.5277V3.60632V3.68471V3.76287V3.84081V3.91852V3.99601V4.07328V4.15033V4.22716V4.30377V4.38017V4.45635V4.53232V4.60808V4.68362V4.75896V4.83409V4.90902V4.98374V5.05826V5.13258V5.20669V5.28061V5.35433V5.42786V5.50119V5.57433V5.64727V5.72003V5.7926V5.86498V5.93718V6.00919V6.08102V6.15266V6.22413V6.29542V6.36653V6.43747V6.50823V6.57882V6.64924V6.71949V6.78957V6.85948V6.92923V6.99881V7.06823V7.13749V7.20659V7.27554V7.34432V7.41295V7.48143V7.54975V7.61792V7.68594V7.75382V7.82155V7.88913V7.95657V8.02386V8.09101V8.15803V8.22491V8.29165V8.35825V8.42472V8.49106V8.55727V8.62335V8.6893V8.75512V8.82082V8.88639V8.95184V9.01717V9.08239V9.14748V9.21246V9.27732V9.34207V9.4067V9.47123V9.53564V9.59995V9.66415V9.72825V9.79224V9.85613V9.91992V9.98361V10.0472V10.1107V10.1741V10.2374V10.3006V10.3637V10.4268V10.4897V10.5526V10.6154V10.6781V10.7407V10.8032V10.8657V10.928V10.9903V11.0525V11.1147V11.1768V11.2388V11.3007V11.3626V11.4244V11.4861V11.5478V11.6094V11.671V11.7325V11.7939V11.8553V11.9166V11.9779V12.0391V12.1003V12.1614V12.2225V12.2835V12.3445V12.4054V12.4663V12.5272V12.588V12.6488V12.7095V12.7702V12.8309V12.8915V12.9522V13.0127V13.0733V13.1338V13.1943V13.2548V13.3153V13.3757V13.4362V13.4966V13.557V13.6173V13.6777V13.7381V13.7984V13.8587V13.9191V13.9794V14.0397V14.1V14.1603V14.2206V14.281V14.3413V14.4016V14.4619V14.5223V14.5826V14.643V14.7033V14.7637V14.8241V14.8845V14.9449V15.0054V15.0658V15.1263V15.1868V15.2473V15.3079V15.3685V15.4291V15.4897V15.5504V15.6111V15.6719V15.7327V15.7935V15.8543V15.9152V15.9762V16.0371V16.0982V16.1592V16.2204V16.2815V16.3427V16.404V16.4653V16.5267V16.5882V16.6496V16.7112V16.7728V16.8345V16.8962V16.958V17.0199V17.0818V17.1438V17.2059V17.268V17.3303V17.3926V17.4549V17.5174V17.5799V17.6425V17.7052V17.768V17.8308V17.8938V17.9568V18.0199V18.0831V18.1464V18.2098V18.2733V18.3369V18.4006V18.4644V18.5283V18.5923V18.6564V18.7205V18.7849V18.8493V18.9138V18.9784V19.0432V19.108V19.173V19.2381V19.3033V19.3686V19.4341V19.4996V19.5653V19.6311V19.6971V19.7632V19.8294V19.8957V19.9622V20.0288V20.0955V20.1624V20.2294V20.2965V20.3638V20.4312V20.4988V20.5665V20.6344V20.7024V20.7706V20.8389V20.9074V20.976V21.0448V21.1137V21.1828V21.2521V21.3215V21.3911V21.4608V21.5307V21.6008V21.671V21.7414V21.812V21.8828V21.9537V22.0248V22.0961V22.1675V22.2392V22.311V22.383V22.4552V22.5276V22.6001V22.6729V22.7458V22.8189V22.8923V22.9658V23.0395V23.1134V23.1875V23.2618V23.3363V23.4111V23.486V23.5611V23.6364V23.712V23.7877V23.8637V23.9398V24.0162V24.0928V24.1697V24.2467V24.324V24.4014V24.4791V24.5571V24.6352V24.7136V24.7922V24.8711V24.9501V25.0294V25.109V25.1887V25.2688V25.349V25.4295V25.5102V25.5912V25.6724V25.7539V25.8356V25.9176V25.9998V26.0823V26.165V26.248V26.3312V26.4147V26.4984V26.5824V26.6667V26.7512V26.836V26.9211V27.0064V27.092V27.1779V27.264V27.3504V27.4371V27.5241V27.6113V27.6989V27.7867V27.8748V27.9631V28.0518V28.1407V28.23V28.3195V28.4093V28.4994V28.5898V28.6805V28.7714V28.8627V28.9543V29.0462V29.1384V29.2309V29.3237V29.4168V29.5102V29.6039V29.6979V29.7922V29.8869V29.9819V30.0772V30.1728V30.2687V30.3649V30.4615V30.5584V30.6556V30.7531V30.851V30.9492V31.0477V31.1466V31.2458V31.3453V31.4452V31.5454V31.6459V31.7468V31.8481V31.9496V32.0515V32.1538V32.2564V32.3594V32.4627V32.5664V32.6704V32.7748V32.8795V32.9846V33.09V33.1958V33.302V33.4086V33.5155V33.6227V33.7304V33.8384V33.9468V34.0555V34.1646V34.2741V34.384V34.4943V34.6049V34.7159V34.8273V34.9391V35.0513V35.1638V35.2768V35.3901V35.5038V35.618V35.7325V35.8474V35.9627V36.0784V36.1945V36.311V36.4279V36.5452V36.6629V36.7811V36.8996V37.0186V37.1379V37.2577V37.3779V37.4985V37.6195V37.7409V37.8628V37.9851V38.1078V38.2309V38.3544V38.4784V38.6028V38.7277V38.8529V38.9786V39.1048V39.2313V39.3583V39.4858V39.6137V39.742V39.8708V39.9453H0.97074C0.97299 38.2853 1.07767 36.6493 1.27658 35.0426L3.25617 33.6043L6.6145 36.0442L6.75067 36.1432L6.69865 35.9831L5.41577 32.0351L8.77425 29.5952L8.91043 29.4963H8.74211H4.59091L3.4736 26.0572C3.85657 25.0286 4.28147 24.0204 4.74514 23.0339ZM20.9623 36.0442L21.0985 36.1432L21.0465 35.9831L19.7636 32.0351L23.1221 29.5952L23.2582 29.4963H23.0899H18.9387L17.656 25.5483L17.604 25.3882L17.552 25.5483L16.2693 29.4963H12.118H11.9497L12.0859 29.5952L15.4444 32.0351L14.1615 35.9831L14.1095 36.1432L14.2457 36.0442L17.604 33.6043L20.9623 36.0442ZM20.9623 24.3921L21.0985 24.491L21.0465 24.3309L19.7636 20.3829L23.1221 17.943L23.2582 17.8441H23.0899H18.9387L17.656 13.8961L17.604 13.736L17.552 13.8961L16.2693 17.8441H12.118H11.9497L12.0859 17.943L15.4444 20.3829L14.1615 24.3309L14.1095 24.491L14.2457 24.3921L17.604 21.9521L20.9623 24.3921ZM35.3101 36.0442L35.4463 36.1432L35.3943 35.9831L34.1114 32.0351L37.4699 29.5952L37.6061 29.4963H37.4377H33.2865L32.0038 25.5483L31.9518 25.3882L31.8998 25.5483L30.6171 29.4963H26.4659H26.2975L26.4337 29.5952L29.7922 32.0351L28.5093 35.9831L28.4573 36.1432L28.5935 36.0442L31.9518 33.6043L35.3101 36.0442ZM35.3101 24.3921L35.4463 24.491L35.3943 24.3309L34.1114 20.3829L37.4699 17.943L37.6061 17.8441H37.4377H33.2865L32.0038 13.8961L31.9518 13.736L31.8998 13.8961L30.6171 17.8441H26.4659H26.2975L26.4337 17.943L29.7922 20.3829L28.5093 24.3309L28.4573 24.491L28.5935 24.3921L31.9518 21.9521L35.3101 24.3921ZM35.3101 12.7399L35.4463 12.8388L35.3943 12.6787L34.1114 8.73073L37.4699 6.29081L37.6061 6.19187H37.4377H33.2865L32.0038 2.24388L31.9518 2.0838L31.8998 2.24388L30.6171 6.19187H26.4659H26.2975L26.4337 6.29081L29.7922 8.73073L28.5093 12.6787L28.4573 12.8388L28.5935 12.7399L31.9518 10.2999L35.3101 12.7399Z" fill="#0052B4" stroke="#E9E8EB" stroke-width="0.109375"/>
</g>
<defs>
<clipPath id="clip0_3911_229934">
<rect width="80" height="80" fill="white" transform="translate(0.916016)"/>
</clipPath>
</defs>
</svg>
